%TF.GenerationSoftware,KiCad,Pcbnew,8.0.6*%
%TF.CreationDate,2024-12-12T23:36:56-08:00*%
%TF.ProjectId,KiCAD_MCPtest,4b694341-445f-44d4-9350-746573742e6b,rev?*%
%TF.SameCoordinates,Original*%
%TF.FileFunction,Copper,L3,Inr*%
%TF.FilePolarity,Positive*%
%FSLAX46Y46*%
G04 Gerber Fmt 4.6, Leading zero omitted, Abs format (unit mm)*
G04 Created by KiCad (PCBNEW 8.0.6) date 2024-12-12 23:36:56*
%MOMM*%
%LPD*%
G01*
G04 APERTURE LIST*
%TA.AperFunction,ComponentPad*%
%ADD10C,0.900000*%
%TD*%
%TA.AperFunction,ComponentPad*%
%ADD11C,8.600000*%
%TD*%
%TA.AperFunction,ComponentPad*%
%ADD12O,0.900000X1.700000*%
%TD*%
%TA.AperFunction,ComponentPad*%
%ADD13O,0.900000X2.000000*%
%TD*%
%TA.AperFunction,ComponentPad*%
%ADD14R,1.700000X1.700000*%
%TD*%
%TA.AperFunction,ComponentPad*%
%ADD15O,1.700000X1.700000*%
%TD*%
%TA.AperFunction,ViaPad*%
%ADD16C,0.600000*%
%TD*%
G04 APERTURE END LIST*
D10*
%TO.N,GND*%
%TO.C,H4*%
X101775000Y-103000000D03*
X102719581Y-100719581D03*
X102719581Y-105280419D03*
X105000000Y-99775000D03*
D11*
X105000000Y-103000000D03*
D10*
X105000000Y-106225000D03*
X107280419Y-100719581D03*
X107280419Y-105280419D03*
X108225000Y-103000000D03*
%TD*%
%TO.N,GND*%
%TO.C,H3*%
X151775000Y-103000000D03*
X152719581Y-100719581D03*
X152719581Y-105280419D03*
X155000000Y-99775000D03*
D11*
X155000000Y-103000000D03*
D10*
X155000000Y-106225000D03*
X157280419Y-100719581D03*
X157280419Y-105280419D03*
X158225000Y-103000000D03*
%TD*%
%TO.N,GND*%
%TO.C,H2*%
X158225000Y-48000000D03*
X157280419Y-50280419D03*
X157280419Y-45719581D03*
X155000000Y-51225000D03*
D11*
X155000000Y-48000000D03*
D10*
X155000000Y-44775000D03*
X152719581Y-50280419D03*
X152719581Y-45719581D03*
X151775000Y-48000000D03*
%TD*%
%TO.N,GND*%
%TO.C,H1*%
X101775000Y-48000000D03*
X102719581Y-45719581D03*
X102719581Y-50280419D03*
X105000000Y-44775000D03*
D11*
X105000000Y-48000000D03*
D10*
X105000000Y-51225000D03*
X107280419Y-45719581D03*
X107280419Y-50280419D03*
X108225000Y-48000000D03*
%TD*%
D12*
%TO.N,GND*%
%TO.C,P1*%
X124820000Y-105865000D03*
D13*
X124820000Y-101695000D03*
D12*
X116180000Y-105865000D03*
D13*
X116180000Y-101695000D03*
%TD*%
D14*
%TO.N,+5V*%
%TO.C,J1*%
X126700000Y-46000000D03*
D15*
%TO.N,CANH*%
X129240000Y-46000000D03*
%TO.N,CANL*%
X131780000Y-46000000D03*
%TO.N,GND*%
X134320000Y-46000000D03*
%TD*%
D14*
%TO.N,+5V*%
%TO.C,J3*%
X104000000Y-60840000D03*
D15*
%TO.N,+3V3*%
X104000000Y-63380000D03*
%TO.N,SWDIO*%
X104000000Y-65920000D03*
%TO.N,SWCLK*%
X104000000Y-68460000D03*
%TO.N,GND*%
X104000000Y-71000000D03*
%TD*%
%TO.N,GND*%
%TO.C,J5*%
X155500000Y-71580000D03*
%TO.N,SWCLK2*%
X155500000Y-69040000D03*
%TO.N,SWDIO2*%
X155500000Y-66500000D03*
%TO.N,+3V3*%
X155500000Y-63960000D03*
D14*
%TO.N,+5V*%
X155500000Y-61420000D03*
%TD*%
%TO.N,+3V3*%
%TO.C,J6*%
X155500000Y-75880000D03*
D15*
%TO.N,USART1_TX2*%
X155500000Y-78420000D03*
%TO.N,USART1_RX2*%
X155500000Y-80960000D03*
%TO.N,GND*%
X155500000Y-83500000D03*
%TD*%
D14*
%TO.N,+3V3*%
%TO.C,J4*%
X104000000Y-75460000D03*
D15*
%TO.N,USART1_TX*%
X104000000Y-78000000D03*
%TO.N,USART1_RX*%
X104000000Y-80540000D03*
%TO.N,GND*%
X104000000Y-83080000D03*
%TD*%
D14*
%TO.N,+3V3*%
%TO.C,J2*%
X104000000Y-87200000D03*
D15*
%TO.N,I2C1_SCL*%
X104000000Y-89740000D03*
%TO.N,I2C1_SDA*%
X104000000Y-92280000D03*
%TO.N,GND*%
X104000000Y-94820000D03*
%TD*%
D16*
%TO.N,+3V3*%
X113900000Y-67800000D03*
%TO.N,+5V*%
X121500000Y-92200000D03*
X118100000Y-100300000D03*
X122900000Y-100300000D03*
%TO.N,GND*%
X117900000Y-72300000D03*
X118300000Y-64400000D03*
%TO.N,+3V3*%
X117400000Y-64400000D03*
X127100000Y-67400000D03*
%TO.N,GND*%
X127000000Y-68500000D03*
X137600000Y-71400000D03*
%TO.N,SWCLK2*%
X145300000Y-65700000D03*
%TO.N,+5V*%
X118135000Y-57800000D03*
%TO.N,+3V3*%
X119500000Y-51500000D03*
%TO.N,+5V*%
X145800000Y-89175000D03*
X147500000Y-88500000D03*
X144100000Y-57800000D03*
%TO.N,GND*%
X140700000Y-86200000D03*
X140700000Y-84900000D03*
X147000000Y-68300000D03*
%TO.N,+3V3*%
X146000000Y-54000000D03*
%TO.N,GND*%
X151900000Y-61900000D03*
X143000000Y-61600000D03*
X147000000Y-52000000D03*
X141600000Y-52800000D03*
X116900000Y-57800000D03*
X121000000Y-52100000D03*
X115600000Y-52800000D03*
X108000000Y-62000000D03*
X115300000Y-64100000D03*
X116100000Y-63500000D03*
X113000000Y-67500000D03*
X110300000Y-72000000D03*
X110300000Y-71100000D03*
X113500000Y-76500000D03*
%TO.N,+3V3*%
X110900000Y-76000000D03*
X144000000Y-76400000D03*
%TO.N,GND*%
X142500000Y-77100000D03*
%TO.N,+3V3*%
X141100000Y-78500000D03*
%TO.N,GND*%
X138700000Y-76800000D03*
X133500000Y-77000000D03*
X132500000Y-77000000D03*
%TO.N,+3V3*%
X131100000Y-76500000D03*
%TO.N,GND*%
X131000000Y-74000000D03*
X130800000Y-73000000D03*
X132900000Y-68900000D03*
X133700000Y-69500000D03*
X133000000Y-68000000D03*
X132000000Y-63500000D03*
X133900000Y-66500000D03*
X138600000Y-63900000D03*
%TO.N,+3V3*%
X135300000Y-65600000D03*
%TO.N,GND*%
X135300000Y-64100000D03*
%TO.N,+3V3*%
X137500000Y-63900000D03*
X146500000Y-67000000D03*
X146800000Y-92000000D03*
%TO.N,GND*%
X117400000Y-94300000D03*
X123800000Y-100300000D03*
X121600000Y-94400000D03*
X130000000Y-88500000D03*
%TO.N,+3V3*%
X134000000Y-96300000D03*
X133200000Y-97700000D03*
X133200000Y-100000000D03*
X134000000Y-101100000D03*
%TO.N,GND*%
X137800000Y-100400000D03*
X137800000Y-99500000D03*
X137800000Y-98000000D03*
X137800000Y-96900000D03*
X144000000Y-94000000D03*
X151200000Y-93900000D03*
X149700000Y-89200000D03*
%TO.N,I2C1_SDA*%
X127300000Y-79200000D03*
X129800000Y-72400000D03*
%TO.N,I2C1_SCL*%
X127300000Y-77000000D03*
X128900000Y-71700000D03*
%TO.N,SWCLK*%
X106700000Y-67600000D03*
X119700000Y-68600000D03*
%TO.N,SWDIO*%
X118100000Y-69100000D03*
%TO.N,+3V3*%
X121600000Y-77000000D03*
X124000000Y-77000000D03*
%TO.N,GND*%
X118000000Y-76500000D03*
%TO.N,+3V3*%
X109500000Y-92200000D03*
%TO.N,USB_CONN_D-*%
X121500000Y-97000000D03*
X120500000Y-95000000D03*
%TO.N,USART1_TX*%
X127000000Y-71500000D03*
%TO.N,USART1_RX*%
X127000000Y-70500000D03*
%TO.N,CANH*%
X142500000Y-45500000D03*
X142500000Y-51000000D03*
X116500000Y-45500000D03*
X116500000Y-51000000D03*
%TD*%
%TA.AperFunction,Conductor*%
%TO.N,+3V3*%
G36*
X154356566Y-43019685D02*
G01*
X154402321Y-43072489D01*
X154412265Y-43141647D01*
X154383240Y-43205203D01*
X154324462Y-43242977D01*
X154311668Y-43246007D01*
X153930704Y-43315142D01*
X153515080Y-43429847D01*
X153515055Y-43429855D01*
X153111386Y-43581354D01*
X153111372Y-43581360D01*
X152722906Y-43768436D01*
X152722904Y-43768437D01*
X152352743Y-43989599D01*
X152003931Y-44243026D01*
X152003914Y-44243039D01*
X151679210Y-44526726D01*
X151679205Y-44526730D01*
X151381237Y-44838379D01*
X151381225Y-44838392D01*
X151112404Y-45175485D01*
X151112394Y-45175498D01*
X150874867Y-45535337D01*
X150874867Y-45535338D01*
X150874864Y-45535343D01*
X150874863Y-45535345D01*
X150865815Y-45552159D01*
X150670537Y-45915044D01*
X150670533Y-45915052D01*
X150501076Y-46311519D01*
X150501073Y-46311527D01*
X150367830Y-46721608D01*
X150271885Y-47141972D01*
X150214006Y-47569253D01*
X150214005Y-47569262D01*
X150194661Y-47999996D01*
X150194661Y-48000003D01*
X150214005Y-48430737D01*
X150214006Y-48430746D01*
X150271885Y-48858027D01*
X150367830Y-49278391D01*
X150501073Y-49688472D01*
X150501076Y-49688480D01*
X150670533Y-50084947D01*
X150670537Y-50084955D01*
X150670539Y-50084958D01*
X150874863Y-50464655D01*
X150874867Y-50464661D01*
X150874867Y-50464662D01*
X151112394Y-50824501D01*
X151112404Y-50824514D01*
X151381225Y-51161607D01*
X151381237Y-51161620D01*
X151676255Y-51470184D01*
X151679210Y-51473274D01*
X152003920Y-51756965D01*
X152003930Y-51756972D01*
X152003931Y-51756973D01*
X152229350Y-51920750D01*
X152352753Y-52010407D01*
X152722900Y-52231560D01*
X152722903Y-52231561D01*
X152722904Y-52231562D01*
X152722906Y-52231563D01*
X153111372Y-52418639D01*
X153111386Y-52418645D01*
X153515055Y-52570144D01*
X153515059Y-52570145D01*
X153515069Y-52570149D01*
X153930711Y-52684859D01*
X154354964Y-52761850D01*
X154784409Y-52800500D01*
X154784416Y-52800500D01*
X155215584Y-52800500D01*
X155215591Y-52800500D01*
X155645036Y-52761850D01*
X156069289Y-52684859D01*
X156484931Y-52570149D01*
X156888619Y-52418643D01*
X157277100Y-52231560D01*
X157647247Y-52010407D01*
X157996080Y-51756965D01*
X158320790Y-51473274D01*
X158618764Y-51161619D01*
X158887601Y-50824507D01*
X159125137Y-50464655D01*
X159329461Y-50084958D01*
X159498926Y-49688475D01*
X159632168Y-49278397D01*
X159728115Y-48858026D01*
X159753122Y-48673411D01*
X159781628Y-48609623D01*
X159840095Y-48571370D01*
X159909963Y-48570800D01*
X159969047Y-48608093D01*
X159998590Y-48671410D01*
X160000000Y-48690058D01*
X160000000Y-102309941D01*
X159980315Y-102376980D01*
X159927511Y-102422735D01*
X159858353Y-102432679D01*
X159794797Y-102403654D01*
X159757023Y-102344876D01*
X159753122Y-102326586D01*
X159728115Y-102141974D01*
X159632168Y-101721603D01*
X159498926Y-101311525D01*
X159419538Y-101125788D01*
X159329466Y-100915052D01*
X159329462Y-100915044D01*
X159304015Y-100867756D01*
X159125137Y-100535345D01*
X159125132Y-100535337D01*
X158887605Y-100175498D01*
X158887595Y-100175485D01*
X158618774Y-99838392D01*
X158618762Y-99838379D01*
X158320794Y-99526730D01*
X158320793Y-99526729D01*
X158320790Y-99526726D01*
X157996080Y-99243035D01*
X157996068Y-99243026D01*
X157647256Y-98989599D01*
X157647251Y-98989596D01*
X157647247Y-98989593D01*
X157277100Y-98768440D01*
X157277095Y-98768437D01*
X157277093Y-98768436D01*
X156888627Y-98581360D01*
X156888613Y-98581354D01*
X156484944Y-98429855D01*
X156484919Y-98429847D01*
X156069295Y-98315142D01*
X155645043Y-98238151D01*
X155645040Y-98238150D01*
X155645036Y-98238150D01*
X155215591Y-98199500D01*
X154784409Y-98199500D01*
X154354964Y-98238150D01*
X154354960Y-98238150D01*
X154354956Y-98238151D01*
X153930704Y-98315142D01*
X153515080Y-98429847D01*
X153515055Y-98429855D01*
X153111386Y-98581354D01*
X153111372Y-98581360D01*
X152722906Y-98768436D01*
X152722904Y-98768437D01*
X152352743Y-98989599D01*
X152003931Y-99243026D01*
X152003914Y-99243039D01*
X151679210Y-99526726D01*
X151679205Y-99526730D01*
X151381237Y-99838379D01*
X151381225Y-99838392D01*
X151112404Y-100175485D01*
X151112394Y-100175498D01*
X150874867Y-100535337D01*
X150874867Y-100535338D01*
X150670537Y-100915044D01*
X150670533Y-100915052D01*
X150501076Y-101311519D01*
X150501073Y-101311527D01*
X150367830Y-101721608D01*
X150271885Y-102141972D01*
X150214006Y-102569253D01*
X150214005Y-102569262D01*
X150194661Y-102999996D01*
X150194661Y-103000003D01*
X150214005Y-103430737D01*
X150214006Y-103430746D01*
X150271885Y-103858027D01*
X150367830Y-104278391D01*
X150501073Y-104688472D01*
X150501076Y-104688480D01*
X150670533Y-105084947D01*
X150670537Y-105084955D01*
X150670539Y-105084958D01*
X150874863Y-105464655D01*
X150874867Y-105464661D01*
X150874867Y-105464662D01*
X151112394Y-105824501D01*
X151112404Y-105824514D01*
X151381225Y-106161607D01*
X151381235Y-106161618D01*
X151381236Y-106161619D01*
X151679210Y-106473274D01*
X151940635Y-106701675D01*
X151956158Y-106715237D01*
X152003920Y-106756965D01*
X152003930Y-106756972D01*
X152003931Y-106756973D01*
X152342973Y-107003302D01*
X152352753Y-107010407D01*
X152722900Y-107231560D01*
X152722903Y-107231561D01*
X152722904Y-107231562D01*
X152722906Y-107231563D01*
X153111372Y-107418639D01*
X153111386Y-107418645D01*
X153515055Y-107570144D01*
X153515059Y-107570145D01*
X153515069Y-107570149D01*
X153930711Y-107684859D01*
X154261902Y-107744961D01*
X154311668Y-107753993D01*
X154374115Y-107785331D01*
X154409706Y-107845457D01*
X154407141Y-107915279D01*
X154367234Y-107972631D01*
X154302656Y-107999303D01*
X154289527Y-108000000D01*
X105710473Y-108000000D01*
X105643434Y-107980315D01*
X105597679Y-107927511D01*
X105587735Y-107858353D01*
X105616760Y-107794797D01*
X105675538Y-107757023D01*
X105688332Y-107753993D01*
X105729249Y-107746567D01*
X106069289Y-107684859D01*
X106484931Y-107570149D01*
X106888619Y-107418643D01*
X107277100Y-107231560D01*
X107647247Y-107010407D01*
X107996080Y-106756965D01*
X108320790Y-106473274D01*
X108618764Y-106161619D01*
X108887601Y-105824507D01*
X109125137Y-105464655D01*
X109175331Y-105371379D01*
X115229500Y-105371379D01*
X115229500Y-106358620D01*
X115266025Y-106542243D01*
X115266027Y-106542251D01*
X115337676Y-106715228D01*
X115337681Y-106715237D01*
X115441697Y-106870907D01*
X115441700Y-106870911D01*
X115574088Y-107003299D01*
X115574092Y-107003302D01*
X115729762Y-107107318D01*
X115729768Y-107107321D01*
X115729769Y-107107322D01*
X115902749Y-107178973D01*
X116086379Y-107215499D01*
X116086383Y-107215500D01*
X116086384Y-107215500D01*
X116273617Y-107215500D01*
X116273618Y-107215499D01*
X116457251Y-107178973D01*
X116630231Y-107107322D01*
X116785908Y-107003302D01*
X116918302Y-106870908D01*
X117022322Y-106715231D01*
X117093973Y-106542251D01*
X117130500Y-106358616D01*
X117130500Y-105371384D01*
X117130499Y-105371379D01*
X123869500Y-105371379D01*
X123869500Y-106358620D01*
X123906025Y-106542243D01*
X123906027Y-106542251D01*
X123977676Y-106715228D01*
X123977681Y-106715237D01*
X124081697Y-106870907D01*
X124081700Y-106870911D01*
X124214088Y-107003299D01*
X124214092Y-107003302D01*
X124369762Y-107107318D01*
X124369768Y-107107321D01*
X124369769Y-107107322D01*
X124542749Y-107178973D01*
X124726379Y-107215499D01*
X124726383Y-107215500D01*
X124726384Y-107215500D01*
X124913617Y-107215500D01*
X124913618Y-107215499D01*
X125097251Y-107178973D01*
X125270231Y-107107322D01*
X125425908Y-107003302D01*
X125558302Y-106870908D01*
X125662322Y-106715231D01*
X125733973Y-106542251D01*
X125770500Y-106358616D01*
X125770500Y-105371384D01*
X125733973Y-105187749D01*
X125662322Y-105014769D01*
X125662321Y-105014768D01*
X125662318Y-105014762D01*
X125558302Y-104859092D01*
X125558299Y-104859088D01*
X125425911Y-104726700D01*
X125425907Y-104726697D01*
X125270237Y-104622681D01*
X125270228Y-104622676D01*
X125097251Y-104551027D01*
X125097243Y-104551025D01*
X124913620Y-104514500D01*
X124913616Y-104514500D01*
X124726384Y-104514500D01*
X124726379Y-104514500D01*
X124542756Y-104551025D01*
X124542748Y-104551027D01*
X124369771Y-104622676D01*
X124369762Y-104622681D01*
X124214092Y-104726697D01*
X124214088Y-104726700D01*
X124081700Y-104859088D01*
X124081697Y-104859092D01*
X123977681Y-105014762D01*
X123977676Y-105014771D01*
X123906027Y-105187748D01*
X123906025Y-105187756D01*
X123869500Y-105371379D01*
X117130499Y-105371379D01*
X117093973Y-105187749D01*
X117022322Y-105014769D01*
X117022321Y-105014768D01*
X117022318Y-105014762D01*
X116918302Y-104859092D01*
X116918299Y-104859088D01*
X116785911Y-104726700D01*
X116785907Y-104726697D01*
X116630237Y-104622681D01*
X116630228Y-104622676D01*
X116457251Y-104551027D01*
X116457243Y-104551025D01*
X116273620Y-104514500D01*
X116273616Y-104514500D01*
X116086384Y-104514500D01*
X116086379Y-104514500D01*
X115902756Y-104551025D01*
X115902748Y-104551027D01*
X115729771Y-104622676D01*
X115729762Y-104622681D01*
X115574092Y-104726697D01*
X115574088Y-104726700D01*
X115441700Y-104859088D01*
X115441697Y-104859092D01*
X115337681Y-105014762D01*
X115337676Y-105014771D01*
X115266027Y-105187748D01*
X115266025Y-105187756D01*
X115229500Y-105371379D01*
X109175331Y-105371379D01*
X109329461Y-105084958D01*
X109498926Y-104688475D01*
X109632168Y-104278397D01*
X109728115Y-103858026D01*
X109785994Y-103430747D01*
X109805339Y-103000000D01*
X109785994Y-102569253D01*
X109728115Y-102141974D01*
X109632168Y-101721603D01*
X109498926Y-101311525D01*
X109419538Y-101125788D01*
X109387734Y-101051379D01*
X115229500Y-101051379D01*
X115229500Y-102338620D01*
X115266025Y-102522243D01*
X115266027Y-102522251D01*
X115337676Y-102695228D01*
X115337681Y-102695237D01*
X115441697Y-102850907D01*
X115441700Y-102850911D01*
X115574088Y-102983299D01*
X115574092Y-102983302D01*
X115729762Y-103087318D01*
X115729768Y-103087321D01*
X115729769Y-103087322D01*
X115902749Y-103158973D01*
X116086379Y-103195499D01*
X116086383Y-103195500D01*
X116086384Y-103195500D01*
X116273617Y-103195500D01*
X116273618Y-103195499D01*
X116457251Y-103158973D01*
X116630231Y-103087322D01*
X116785908Y-102983302D01*
X116918302Y-102850908D01*
X117022322Y-102695231D01*
X117047779Y-102633770D01*
X117091617Y-102579370D01*
X117157911Y-102557304D01*
X117225611Y-102574582D01*
X117250020Y-102593544D01*
X117271985Y-102615509D01*
X117271986Y-102615510D01*
X117271988Y-102615511D01*
X117397511Y-102687982D01*
X117397512Y-102687982D01*
X117397515Y-102687984D01*
X117537525Y-102725500D01*
X117537528Y-102725500D01*
X117682472Y-102725500D01*
X117682475Y-102725500D01*
X117822485Y-102687984D01*
X117948015Y-102615509D01*
X118050509Y-102513015D01*
X118122984Y-102387485D01*
X118160500Y-102247475D01*
X118160500Y-102102525D01*
X118122984Y-101962515D01*
X118050509Y-101836985D01*
X117948015Y-101734491D01*
X117948013Y-101734490D01*
X117948011Y-101734488D01*
X117822488Y-101662017D01*
X117822489Y-101662017D01*
X117811006Y-101658940D01*
X117682475Y-101624500D01*
X117537525Y-101624500D01*
X117408993Y-101658940D01*
X117397511Y-101662017D01*
X117316500Y-101708789D01*
X117248599Y-101725262D01*
X117182573Y-101702409D01*
X117139382Y-101647488D01*
X117130500Y-101601402D01*
X117130500Y-101051383D01*
X117130499Y-101051379D01*
X117117317Y-100985107D01*
X117093973Y-100867749D01*
X117022322Y-100694769D01*
X117022321Y-100694768D01*
X117022318Y-100694762D01*
X116918302Y-100539092D01*
X116918299Y-100539088D01*
X116785911Y-100406700D01*
X116785907Y-100406697D01*
X116630237Y-100302681D01*
X116630228Y-100302676D01*
X116623758Y-100299996D01*
X117294435Y-100299996D01*
X117294435Y-100300003D01*
X117314630Y-100479249D01*
X117314631Y-100479254D01*
X117374211Y-100649523D01*
X117422557Y-100726464D01*
X117470184Y-100802262D01*
X117597738Y-100929816D01*
X117750478Y-101025789D01*
X117901469Y-101078623D01*
X117920745Y-101085368D01*
X117920750Y-101085369D01*
X118099996Y-101105565D01*
X118100000Y-101105565D01*
X118100004Y-101105565D01*
X118279249Y-101085369D01*
X118279252Y-101085368D01*
X118279255Y-101085368D01*
X118449522Y-101025789D01*
X118602262Y-100929816D01*
X118729816Y-100802262D01*
X118825789Y-100649522D01*
X118885368Y-100479255D01*
X118893543Y-100406698D01*
X118905565Y-100300003D01*
X118905565Y-100299996D01*
X122094435Y-100299996D01*
X122094435Y-100300003D01*
X122114630Y-100479249D01*
X122114631Y-100479254D01*
X122174211Y-100649523D01*
X122222557Y-100726464D01*
X122270184Y-100802262D01*
X122397738Y-100929816D01*
X122550478Y-101025789D01*
X122701469Y-101078623D01*
X122720745Y-101085368D01*
X122720750Y-101085369D01*
X122899996Y-101105565D01*
X122900000Y-101105565D01*
X122900004Y-101105565D01*
X123079249Y-101085369D01*
X123079252Y-101085368D01*
X123079255Y-101085368D01*
X123249522Y-101025789D01*
X123284027Y-101004108D01*
X123351263Y-100985107D01*
X123415973Y-101004108D01*
X123450475Y-101025788D01*
X123620745Y-101085368D01*
X123620750Y-101085369D01*
X123759383Y-101100989D01*
X123823797Y-101128055D01*
X123863352Y-101185650D01*
X123869500Y-101224209D01*
X123869500Y-101601402D01*
X123849815Y-101668441D01*
X123797011Y-101714196D01*
X123727853Y-101724140D01*
X123683500Y-101708789D01*
X123602488Y-101662017D01*
X123602489Y-101662017D01*
X123591006Y-101658940D01*
X123462475Y-101624500D01*
X123317525Y-101624500D01*
X123188993Y-101658940D01*
X123177511Y-101662017D01*
X123051988Y-101734488D01*
X123051982Y-101734493D01*
X122949493Y-101836982D01*
X122949488Y-101836988D01*
X122877017Y-101962511D01*
X122877016Y-101962515D01*
X122839500Y-102102525D01*
X122839500Y-102247475D01*
X122863922Y-102338617D01*
X122877017Y-102387488D01*
X122949488Y-102513011D01*
X122949490Y-102513013D01*
X122949491Y-102513015D01*
X123051985Y-102615509D01*
X123051986Y-102615510D01*
X123051988Y-102615511D01*
X123177511Y-102687982D01*
X123177512Y-102687982D01*
X123177515Y-102687984D01*
X123317525Y-102725500D01*
X123317528Y-102725500D01*
X123462472Y-102725500D01*
X123462475Y-102725500D01*
X123602485Y-102687984D01*
X123728015Y-102615509D01*
X123749981Y-102593542D01*
X123811300Y-102560059D01*
X123880991Y-102565042D01*
X123936926Y-102606913D01*
X123952221Y-102633773D01*
X123977674Y-102695224D01*
X123977681Y-102695237D01*
X124081697Y-102850907D01*
X124081700Y-102850911D01*
X124214088Y-102983299D01*
X124214092Y-102983302D01*
X124369762Y-103087318D01*
X124369768Y-103087321D01*
X124369769Y-103087322D01*
X124542749Y-103158973D01*
X124726379Y-103195499D01*
X124726383Y-103195500D01*
X124726384Y-103195500D01*
X124913617Y-103195500D01*
X124913618Y-103195499D01*
X125097251Y-103158973D01*
X125270231Y-103087322D01*
X125425908Y-102983302D01*
X125558302Y-102850908D01*
X125662322Y-102695231D01*
X125733973Y-102522251D01*
X125770500Y-102338616D01*
X125770500Y-101224493D01*
X148250464Y-101224493D01*
X148250464Y-101375507D01*
X148289550Y-101521377D01*
X148289551Y-101521380D01*
X148335752Y-101601402D01*
X148365057Y-101652159D01*
X148471841Y-101758943D01*
X148563767Y-101812016D01*
X148602619Y-101834448D01*
X148602620Y-101834448D01*
X148602623Y-101834450D01*
X148748493Y-101873536D01*
X148899504Y-101873536D01*
X148899507Y-101873536D01*
X149045377Y-101834450D01*
X149176159Y-101758943D01*
X149282943Y-101652159D01*
X149358450Y-101521377D01*
X149397536Y-101375507D01*
X149400000Y-101300000D01*
X149397536Y-101224493D01*
X149358450Y-101078623D01*
X149282943Y-100947841D01*
X149176159Y-100841057D01*
X149108964Y-100802262D01*
X149045380Y-100765551D01*
X149045381Y-100765551D01*
X149033419Y-100762345D01*
X148899507Y-100726464D01*
X148899504Y-100726464D01*
X148748496Y-100726464D01*
X148748493Y-100726464D01*
X148614580Y-100762345D01*
X148602619Y-100765551D01*
X148471844Y-100841055D01*
X148471838Y-100841059D01*
X148365059Y-100947838D01*
X148365055Y-100947844D01*
X148289551Y-101078619D01*
X148289550Y-101078623D01*
X148250464Y-101224493D01*
X125770500Y-101224493D01*
X125770500Y-101051384D01*
X125733973Y-100867749D01*
X125662322Y-100694769D01*
X125662321Y-100694768D01*
X125662318Y-100694762D01*
X125558302Y-100539092D01*
X125558299Y-100539088D01*
X125425911Y-100406700D01*
X125425907Y-100406697D01*
X125270237Y-100302681D01*
X125270228Y-100302676D01*
X125097251Y-100231027D01*
X125097243Y-100231025D01*
X124913620Y-100194500D01*
X124913616Y-100194500D01*
X124726384Y-100194500D01*
X124726377Y-100194500D01*
X124724318Y-100194910D01*
X124723219Y-100194811D01*
X124720321Y-100195097D01*
X124720266Y-100194547D01*
X124654726Y-100188677D01*
X124599553Y-100145810D01*
X124583094Y-100114246D01*
X124560781Y-100050480D01*
X124525789Y-99950478D01*
X124429816Y-99797738D01*
X124302262Y-99670184D01*
X124249999Y-99637345D01*
X124149523Y-99574211D01*
X123979254Y-99514631D01*
X123979249Y-99514630D01*
X123800004Y-99494435D01*
X123799996Y-99494435D01*
X123620750Y-99514630D01*
X123620737Y-99514633D01*
X123450480Y-99574209D01*
X123415970Y-99595893D01*
X123348733Y-99614892D01*
X123284030Y-99595893D01*
X123249519Y-99574209D01*
X123079262Y-99514633D01*
X123079249Y-99514630D01*
X122900004Y-99494435D01*
X122899996Y-99494435D01*
X122720750Y-99514630D01*
X122720745Y-99514631D01*
X122550476Y-99574211D01*
X122397737Y-99670184D01*
X122270184Y-99797737D01*
X122174211Y-99950476D01*
X122114631Y-100120745D01*
X122114630Y-100120750D01*
X122094435Y-100299996D01*
X118905565Y-100299996D01*
X118885369Y-100120750D01*
X118885368Y-100120745D01*
X118860781Y-100050480D01*
X118825789Y-99950478D01*
X118729816Y-99797738D01*
X118602262Y-99670184D01*
X118549999Y-99637345D01*
X118449523Y-99574211D01*
X118279254Y-99514631D01*
X118279249Y-99514630D01*
X118100004Y-99494435D01*
X118099996Y-99494435D01*
X117920750Y-99514630D01*
X117920745Y-99514631D01*
X117750476Y-99574211D01*
X117597737Y-99670184D01*
X117470184Y-99797737D01*
X117374211Y-99950476D01*
X117314631Y-100120745D01*
X117314630Y-100120750D01*
X117294435Y-100299996D01*
X116623758Y-100299996D01*
X116457251Y-100231027D01*
X116457243Y-100231025D01*
X116273620Y-100194500D01*
X116273616Y-100194500D01*
X116086384Y-100194500D01*
X116086379Y-100194500D01*
X115902756Y-100231025D01*
X115902748Y-100231027D01*
X115729771Y-100302676D01*
X115729762Y-100302681D01*
X115574092Y-100406697D01*
X115574088Y-100406700D01*
X115441700Y-100539088D01*
X115441697Y-100539092D01*
X115337681Y-100694762D01*
X115337676Y-100694771D01*
X115266027Y-100867748D01*
X115266025Y-100867756D01*
X115229500Y-101051379D01*
X109387734Y-101051379D01*
X109329466Y-100915052D01*
X109329462Y-100915044D01*
X109304015Y-100867756D01*
X109125137Y-100535345D01*
X109125132Y-100535337D01*
X108887605Y-100175498D01*
X108887595Y-100175485D01*
X108618774Y-99838392D01*
X108618762Y-99838379D01*
X108320794Y-99526730D01*
X108320793Y-99526729D01*
X108320790Y-99526726D01*
X107996080Y-99243035D01*
X107996068Y-99243026D01*
X107647256Y-98989599D01*
X107647251Y-98989596D01*
X107647247Y-98989593D01*
X107277100Y-98768440D01*
X107277095Y-98768437D01*
X107277093Y-98768436D01*
X106888627Y-98581360D01*
X106888613Y-98581354D01*
X106484944Y-98429855D01*
X106484919Y-98429847D01*
X106069295Y-98315142D01*
X105645043Y-98238151D01*
X105645040Y-98238150D01*
X105645036Y-98238150D01*
X105215591Y-98199500D01*
X104784409Y-98199500D01*
X104354964Y-98238150D01*
X104354960Y-98238150D01*
X104354956Y-98238151D01*
X103930704Y-98315142D01*
X103515080Y-98429847D01*
X103515055Y-98429855D01*
X103111386Y-98581354D01*
X103111372Y-98581360D01*
X102722906Y-98768436D01*
X102722904Y-98768437D01*
X102352743Y-98989599D01*
X102003931Y-99243026D01*
X102003914Y-99243039D01*
X101679210Y-99526726D01*
X101679205Y-99526730D01*
X101381237Y-99838379D01*
X101381225Y-99838392D01*
X101112404Y-100175485D01*
X101112394Y-100175498D01*
X100874867Y-100535337D01*
X100874867Y-100535338D01*
X100670537Y-100915044D01*
X100670533Y-100915052D01*
X100501076Y-101311519D01*
X100501073Y-101311527D01*
X100367830Y-101721608D01*
X100271885Y-102141972D01*
X100271885Y-102141974D01*
X100249133Y-102309941D01*
X100246878Y-102326586D01*
X100218372Y-102390376D01*
X100159905Y-102428629D01*
X100090037Y-102429199D01*
X100030953Y-102391906D01*
X100001410Y-102328589D01*
X100000000Y-102309941D01*
X100000000Y-96999996D01*
X120694435Y-96999996D01*
X120694435Y-97000003D01*
X120714630Y-97179249D01*
X120714631Y-97179254D01*
X120774211Y-97349523D01*
X120838140Y-97451264D01*
X120870184Y-97502262D01*
X120997738Y-97629816D01*
X121150478Y-97725789D01*
X121320745Y-97785368D01*
X121320750Y-97785369D01*
X121499996Y-97805565D01*
X121500000Y-97805565D01*
X121500004Y-97805565D01*
X121679249Y-97785369D01*
X121679252Y-97785368D01*
X121679255Y-97785368D01*
X121849522Y-97725789D01*
X122002262Y-97629816D01*
X122129816Y-97502262D01*
X122225789Y-97349522D01*
X122285368Y-97179255D01*
X122285369Y-97179249D01*
X122305565Y-97000003D01*
X122305565Y-96999996D01*
X122294298Y-96899996D01*
X136994435Y-96899996D01*
X136994435Y-96900003D01*
X137014630Y-97079249D01*
X137014631Y-97079254D01*
X137074211Y-97249523D01*
X137158727Y-97384028D01*
X137177727Y-97451264D01*
X137158727Y-97515972D01*
X137074211Y-97650476D01*
X137014631Y-97820745D01*
X137014630Y-97820750D01*
X136994435Y-97999996D01*
X136994435Y-98000003D01*
X137014630Y-98179249D01*
X137014631Y-98179254D01*
X137074211Y-98349523D01*
X137170184Y-98502262D01*
X137297738Y-98629816D01*
X137321911Y-98645005D01*
X137321913Y-98645006D01*
X137368204Y-98697341D01*
X137378852Y-98766395D01*
X137350477Y-98830243D01*
X137321913Y-98854994D01*
X137297737Y-98870184D01*
X137170184Y-98997737D01*
X137074211Y-99150476D01*
X137014631Y-99320745D01*
X137014630Y-99320750D01*
X136994435Y-99499996D01*
X136994435Y-99500003D01*
X137014630Y-99679249D01*
X137014633Y-99679262D01*
X137074209Y-99849519D01*
X137095893Y-99884030D01*
X137114892Y-99951267D01*
X137095893Y-100015970D01*
X137074209Y-100050480D01*
X137014633Y-100220737D01*
X137014630Y-100220750D01*
X136994435Y-100399996D01*
X136994435Y-100400003D01*
X137014630Y-100579249D01*
X137014631Y-100579254D01*
X137074211Y-100749523D01*
X137148497Y-100867748D01*
X137170184Y-100902262D01*
X137297738Y-101029816D01*
X137450478Y-101125789D01*
X137620745Y-101185368D01*
X137620750Y-101185369D01*
X137799996Y-101205565D01*
X137800000Y-101205565D01*
X137800004Y-101205565D01*
X137979249Y-101185369D01*
X137979252Y-101185368D01*
X137979255Y-101185368D01*
X138149522Y-101125789D01*
X138302262Y-101029816D01*
X138429816Y-100902262D01*
X138525789Y-100749522D01*
X138585368Y-100579255D01*
X138585369Y-100579249D01*
X138605565Y-100400003D01*
X138605565Y-100399996D01*
X138585369Y-100220750D01*
X138585368Y-100220745D01*
X138525788Y-100050475D01*
X138504108Y-100015973D01*
X138485107Y-99948737D01*
X138504108Y-99884027D01*
X138525788Y-99849524D01*
X138525790Y-99849519D01*
X138585368Y-99679255D01*
X138597204Y-99574209D01*
X138605565Y-99500003D01*
X138605565Y-99499996D01*
X138585369Y-99320750D01*
X138585368Y-99320745D01*
X138525788Y-99150476D01*
X138429815Y-98997737D01*
X138302264Y-98870186D01*
X138302262Y-98870184D01*
X138278084Y-98854992D01*
X138231796Y-98802661D01*
X138221146Y-98733607D01*
X138249521Y-98669758D01*
X138278082Y-98645009D01*
X138302262Y-98629816D01*
X138429816Y-98502262D01*
X138525789Y-98349522D01*
X138585368Y-98179255D01*
X138605565Y-98000000D01*
X138585368Y-97820745D01*
X138525789Y-97650478D01*
X138525788Y-97650476D01*
X138525788Y-97650475D01*
X138481957Y-97580720D01*
X138441272Y-97515970D01*
X138422272Y-97448736D01*
X138441273Y-97384028D01*
X138525789Y-97249522D01*
X138585368Y-97079255D01*
X138585369Y-97079249D01*
X138605565Y-96900003D01*
X138605565Y-96899996D01*
X138585369Y-96720750D01*
X138585368Y-96720745D01*
X138525789Y-96550478D01*
X138429816Y-96397738D01*
X138302262Y-96270184D01*
X138213852Y-96214632D01*
X138149523Y-96174211D01*
X137979254Y-96114631D01*
X137979249Y-96114630D01*
X137800004Y-96094435D01*
X137799996Y-96094435D01*
X137620750Y-96114630D01*
X137620745Y-96114631D01*
X137450476Y-96174211D01*
X137297737Y-96270184D01*
X137170184Y-96397737D01*
X137074211Y-96550476D01*
X137014631Y-96720745D01*
X137014630Y-96720750D01*
X136994435Y-96899996D01*
X122294298Y-96899996D01*
X122285369Y-96820750D01*
X122285368Y-96820745D01*
X122225788Y-96650476D01*
X122162955Y-96550478D01*
X122129816Y-96497738D01*
X122002262Y-96370184D01*
X121849523Y-96274211D01*
X121679254Y-96214631D01*
X121679249Y-96214630D01*
X121500004Y-96194435D01*
X121499996Y-96194435D01*
X121320750Y-96214630D01*
X121320745Y-96214631D01*
X121150476Y-96274211D01*
X120997737Y-96370184D01*
X120870184Y-96497737D01*
X120774211Y-96650476D01*
X120714631Y-96820745D01*
X120714630Y-96820750D01*
X120694435Y-96999996D01*
X100000000Y-96999996D01*
X100000000Y-89739999D01*
X102644341Y-89739999D01*
X102644341Y-89740000D01*
X102664936Y-89975403D01*
X102664938Y-89975413D01*
X102726094Y-90203655D01*
X102726096Y-90203659D01*
X102726097Y-90203663D01*
X102825965Y-90417830D01*
X102825967Y-90417834D01*
X102961501Y-90611395D01*
X102961506Y-90611402D01*
X103128597Y-90778493D01*
X103128603Y-90778498D01*
X103314158Y-90908425D01*
X103357783Y-90963002D01*
X103364977Y-91032500D01*
X103333454Y-91094855D01*
X103314158Y-91111575D01*
X103128597Y-91241505D01*
X102961505Y-91408597D01*
X102825965Y-91602169D01*
X102825964Y-91602171D01*
X102726098Y-91816335D01*
X102726094Y-91816344D01*
X102664938Y-92044586D01*
X102664936Y-92044596D01*
X102644341Y-92279999D01*
X102644341Y-92280000D01*
X102664936Y-92515403D01*
X102664938Y-92515413D01*
X102726094Y-92743655D01*
X102726096Y-92743659D01*
X102726097Y-92743663D01*
X102766271Y-92829816D01*
X102825965Y-92957830D01*
X102825967Y-92957834D01*
X102961501Y-93151395D01*
X102961506Y-93151402D01*
X103128597Y-93318493D01*
X103128603Y-93318498D01*
X103314158Y-93448425D01*
X103357783Y-93503002D01*
X103364977Y-93572500D01*
X103333454Y-93634855D01*
X103314158Y-93651575D01*
X103128597Y-93781505D01*
X102961505Y-93948597D01*
X102825965Y-94142169D01*
X102825964Y-94142171D01*
X102726098Y-94356335D01*
X102726094Y-94356344D01*
X102664938Y-94584586D01*
X102664936Y-94584596D01*
X102644341Y-94819999D01*
X102644341Y-94820000D01*
X102664936Y-95055403D01*
X102664938Y-95055413D01*
X102726094Y-95283655D01*
X102726096Y-95283659D01*
X102726097Y-95283663D01*
X102756808Y-95349522D01*
X102825965Y-95497830D01*
X102825967Y-95497834D01*
X102829068Y-95502262D01*
X102961505Y-95691401D01*
X103128599Y-95858495D01*
X103225384Y-95926265D01*
X103322165Y-95994032D01*
X103322167Y-95994033D01*
X103322170Y-95994035D01*
X103536337Y-96093903D01*
X103764592Y-96155063D01*
X103952918Y-96171539D01*
X103999999Y-96175659D01*
X104000000Y-96175659D01*
X104000001Y-96175659D01*
X104039234Y-96172226D01*
X104235408Y-96155063D01*
X104463663Y-96093903D01*
X104677830Y-95994035D01*
X104871401Y-95858495D01*
X105038495Y-95691401D01*
X105174035Y-95497830D01*
X105273903Y-95283663D01*
X105335063Y-95055408D01*
X105355659Y-94820000D01*
X105335063Y-94584592D01*
X105273903Y-94356337D01*
X105247631Y-94299996D01*
X116594435Y-94299996D01*
X116594435Y-94300003D01*
X116614630Y-94479249D01*
X116614631Y-94479254D01*
X116674211Y-94649523D01*
X116737045Y-94749522D01*
X116770184Y-94802262D01*
X116897738Y-94929816D01*
X117050478Y-95025789D01*
X117135139Y-95055413D01*
X117220745Y-95085368D01*
X117220750Y-95085369D01*
X117399996Y-95105565D01*
X117400000Y-95105565D01*
X117400004Y-95105565D01*
X117579249Y-95085369D01*
X117579252Y-95085368D01*
X117579255Y-95085368D01*
X117749522Y-95025789D01*
X117790571Y-94999996D01*
X119694435Y-94999996D01*
X119694435Y-95000003D01*
X119714630Y-95179249D01*
X119714631Y-95179254D01*
X119774211Y-95349523D01*
X119867399Y-95497830D01*
X119870184Y-95502262D01*
X119997738Y-95629816D01*
X120150478Y-95725789D01*
X120320745Y-95785368D01*
X120320750Y-95785369D01*
X120499996Y-95805565D01*
X120500000Y-95805565D01*
X120500004Y-95805565D01*
X120679249Y-95785369D01*
X120679252Y-95785368D01*
X120679255Y-95785368D01*
X120849522Y-95725789D01*
X121002262Y-95629816D01*
X121129816Y-95502262D01*
X121225789Y-95349522D01*
X121257275Y-95259537D01*
X121297996Y-95202763D01*
X121362949Y-95177015D01*
X121415272Y-95183453D01*
X121420745Y-95185368D01*
X121420752Y-95185368D01*
X121420753Y-95185369D01*
X121599996Y-95205565D01*
X121600000Y-95205565D01*
X121600004Y-95205565D01*
X121779249Y-95185369D01*
X121779252Y-95185368D01*
X121779255Y-95185368D01*
X121949522Y-95125789D01*
X122102262Y-95029816D01*
X122229816Y-94902262D01*
X122325789Y-94749522D01*
X122385368Y-94579255D01*
X122385369Y-94579249D01*
X122405565Y-94400003D01*
X122405565Y-94399996D01*
X122385369Y-94220750D01*
X122385368Y-94220745D01*
X122350376Y-94120745D01*
X122325789Y-94050478D01*
X122294069Y-93999996D01*
X143194435Y-93999996D01*
X143194435Y-94000003D01*
X143214630Y-94179249D01*
X143214631Y-94179254D01*
X143274211Y-94349523D01*
X143355724Y-94479249D01*
X143370184Y-94502262D01*
X143497738Y-94629816D01*
X143650478Y-94725789D01*
X143718306Y-94749523D01*
X143820745Y-94785368D01*
X143820750Y-94785369D01*
X143999996Y-94805565D01*
X144000000Y-94805565D01*
X144000004Y-94805565D01*
X144179249Y-94785369D01*
X144179252Y-94785368D01*
X144179255Y-94785368D01*
X144349522Y-94725789D01*
X144502262Y-94629816D01*
X144629816Y-94502262D01*
X144725789Y-94349522D01*
X144785368Y-94179255D01*
X144785369Y-94179249D01*
X144805565Y-94000003D01*
X144805565Y-93999996D01*
X144794298Y-93899996D01*
X150394435Y-93899996D01*
X150394435Y-93900003D01*
X150414630Y-94079249D01*
X150414631Y-94079254D01*
X150474211Y-94249523D01*
X150481069Y-94260437D01*
X150570184Y-94402262D01*
X150697738Y-94529816D01*
X150850478Y-94625789D01*
X151020745Y-94685368D01*
X151020750Y-94685369D01*
X151199996Y-94705565D01*
X151200000Y-94705565D01*
X151200004Y-94705565D01*
X151379249Y-94685369D01*
X151379252Y-94685368D01*
X151379255Y-94685368D01*
X151549522Y-94625789D01*
X151702262Y-94529816D01*
X151829816Y-94402262D01*
X151925789Y-94249522D01*
X151985368Y-94079255D01*
X151985369Y-94079249D01*
X152005565Y-93900003D01*
X152005565Y-93899996D01*
X151985369Y-93720750D01*
X151985368Y-93720745D01*
X151961164Y-93651575D01*
X151925789Y-93550478D01*
X151903265Y-93514632D01*
X151829815Y-93397737D01*
X151702262Y-93270184D01*
X151549523Y-93174211D01*
X151379254Y-93114631D01*
X151379249Y-93114630D01*
X151200004Y-93094435D01*
X151199996Y-93094435D01*
X151020750Y-93114630D01*
X151020745Y-93114631D01*
X150850476Y-93174211D01*
X150697737Y-93270184D01*
X150570184Y-93397737D01*
X150474211Y-93550476D01*
X150414631Y-93720745D01*
X150414630Y-93720750D01*
X150394435Y-93899996D01*
X144794298Y-93899996D01*
X144785369Y-93820750D01*
X144785368Y-93820745D01*
X144725789Y-93650478D01*
X144722953Y-93645965D01*
X144662955Y-93550478D01*
X144629816Y-93497738D01*
X144502262Y-93370184D01*
X144349523Y-93274211D01*
X144179254Y-93214631D01*
X144179249Y-93214630D01*
X144000004Y-93194435D01*
X143999996Y-93194435D01*
X143820750Y-93214630D01*
X143820745Y-93214631D01*
X143650476Y-93274211D01*
X143497737Y-93370184D01*
X143370184Y-93497737D01*
X143274211Y-93650476D01*
X143214631Y-93820745D01*
X143214630Y-93820750D01*
X143194435Y-93999996D01*
X122294069Y-93999996D01*
X122229816Y-93897738D01*
X122102262Y-93770184D01*
X121949523Y-93674211D01*
X121779254Y-93614631D01*
X121779249Y-93614630D01*
X121600004Y-93594435D01*
X121599996Y-93594435D01*
X121420750Y-93614630D01*
X121420745Y-93614631D01*
X121250476Y-93674211D01*
X121097737Y-93770184D01*
X120970184Y-93897737D01*
X120874211Y-94050476D01*
X120842725Y-94140460D01*
X120802003Y-94197236D01*
X120737050Y-94222983D01*
X120684732Y-94216548D01*
X120679253Y-94214631D01*
X120500004Y-94194435D01*
X120499996Y-94194435D01*
X120320750Y-94214630D01*
X120320745Y-94214631D01*
X120150476Y-94274211D01*
X119997737Y-94370184D01*
X119870184Y-94497737D01*
X119774211Y-94650476D01*
X119714631Y-94820745D01*
X119714630Y-94820750D01*
X119694435Y-94999996D01*
X117790571Y-94999996D01*
X117902262Y-94929816D01*
X118029816Y-94802262D01*
X118125789Y-94649522D01*
X118185368Y-94479255D01*
X118194043Y-94402262D01*
X118205565Y-94300003D01*
X118205565Y-94299996D01*
X118185369Y-94120750D01*
X118185368Y-94120745D01*
X118170848Y-94079249D01*
X118125789Y-93950478D01*
X118124608Y-93948599D01*
X118029815Y-93797737D01*
X117902262Y-93670184D01*
X117749523Y-93574211D01*
X117579254Y-93514631D01*
X117579249Y-93514630D01*
X117400004Y-93494435D01*
X117399996Y-93494435D01*
X117220750Y-93514630D01*
X117220745Y-93514631D01*
X117050476Y-93574211D01*
X116897737Y-93670184D01*
X116770184Y-93797737D01*
X116674211Y-93950476D01*
X116614631Y-94120745D01*
X116614630Y-94120750D01*
X116594435Y-94299996D01*
X105247631Y-94299996D01*
X105174035Y-94142171D01*
X105159033Y-94120745D01*
X105038494Y-93948597D01*
X104871402Y-93781506D01*
X104871396Y-93781501D01*
X104685842Y-93651575D01*
X104642217Y-93596998D01*
X104635023Y-93527500D01*
X104666546Y-93465145D01*
X104685842Y-93448425D01*
X104758232Y-93397737D01*
X104871401Y-93318495D01*
X105038495Y-93151401D01*
X105174035Y-92957830D01*
X105273903Y-92743663D01*
X105335063Y-92515408D01*
X105355659Y-92280000D01*
X105348659Y-92199996D01*
X120694435Y-92199996D01*
X120694435Y-92200003D01*
X120714630Y-92379249D01*
X120714631Y-92379254D01*
X120774211Y-92549523D01*
X120870184Y-92702262D01*
X120997738Y-92829816D01*
X121150478Y-92925789D01*
X121320745Y-92985368D01*
X121320750Y-92985369D01*
X121499996Y-93005565D01*
X121500000Y-93005565D01*
X121500004Y-93005565D01*
X121679249Y-92985369D01*
X121679252Y-92985368D01*
X121679255Y-92985368D01*
X121849522Y-92925789D01*
X122002262Y-92829816D01*
X122129816Y-92702262D01*
X122225789Y-92549522D01*
X122285368Y-92379255D01*
X122285369Y-92379249D01*
X122305565Y-92200003D01*
X122305565Y-92199996D01*
X122285369Y-92020750D01*
X122285368Y-92020745D01*
X122225788Y-91850476D01*
X122129815Y-91697737D01*
X122002262Y-91570184D01*
X121849523Y-91474211D01*
X121679254Y-91414631D01*
X121679249Y-91414630D01*
X121500004Y-91394435D01*
X121499996Y-91394435D01*
X121320750Y-91414630D01*
X121320745Y-91414631D01*
X121150476Y-91474211D01*
X120997737Y-91570184D01*
X120870184Y-91697737D01*
X120774211Y-91850476D01*
X120714631Y-92020745D01*
X120714630Y-92020750D01*
X120694435Y-92199996D01*
X105348659Y-92199996D01*
X105335063Y-92044592D01*
X105273903Y-91816337D01*
X105174035Y-91602171D01*
X105042720Y-91414632D01*
X105038494Y-91408597D01*
X104871402Y-91241506D01*
X104871396Y-91241501D01*
X104685842Y-91111575D01*
X104642217Y-91056998D01*
X104635023Y-90987500D01*
X104666546Y-90925145D01*
X104685842Y-90908425D01*
X104708026Y-90892891D01*
X104871401Y-90778495D01*
X105038495Y-90611401D01*
X105174035Y-90417830D01*
X105273903Y-90203663D01*
X105335063Y-89975408D01*
X105355659Y-89740000D01*
X105335063Y-89504592D01*
X105273903Y-89276337D01*
X105174035Y-89062171D01*
X105145028Y-89020745D01*
X105038496Y-88868600D01*
X104991494Y-88821598D01*
X104916179Y-88746283D01*
X104882696Y-88684963D01*
X104887680Y-88615271D01*
X104929551Y-88559337D01*
X104960529Y-88542422D01*
X105074278Y-88499996D01*
X129194435Y-88499996D01*
X129194435Y-88500003D01*
X129214630Y-88679249D01*
X129214631Y-88679254D01*
X129274211Y-88849523D01*
X129320006Y-88922405D01*
X129370184Y-89002262D01*
X129497738Y-89129816D01*
X129650478Y-89225789D01*
X129794930Y-89276335D01*
X129820745Y-89285368D01*
X129820750Y-89285369D01*
X129999996Y-89305565D01*
X130000000Y-89305565D01*
X130000004Y-89305565D01*
X130179249Y-89285369D01*
X130179252Y-89285368D01*
X130179255Y-89285368D01*
X130349522Y-89225789D01*
X130430359Y-89174996D01*
X144994435Y-89174996D01*
X144994435Y-89175003D01*
X145014630Y-89354249D01*
X145014631Y-89354254D01*
X145074211Y-89524523D01*
X145089920Y-89549523D01*
X145170184Y-89677262D01*
X145297738Y-89804816D01*
X145450478Y-89900789D01*
X145521924Y-89925789D01*
X145620745Y-89960368D01*
X145620750Y-89960369D01*
X145799996Y-89980565D01*
X145800000Y-89980565D01*
X145800004Y-89980565D01*
X145979249Y-89960369D01*
X145979252Y-89960368D01*
X145979255Y-89960368D01*
X146149522Y-89900789D01*
X146302262Y-89804816D01*
X146429816Y-89677262D01*
X146525789Y-89524522D01*
X146585368Y-89354255D01*
X146593130Y-89285368D01*
X146605565Y-89175003D01*
X146605565Y-89174997D01*
X146584859Y-88991227D01*
X146596913Y-88922405D01*
X146644262Y-88871025D01*
X146711873Y-88853401D01*
X146778279Y-88875127D01*
X146813072Y-88911370D01*
X146870182Y-89002260D01*
X146870184Y-89002262D01*
X146997738Y-89129816D01*
X147150478Y-89225789D01*
X147294930Y-89276335D01*
X147320745Y-89285368D01*
X147320750Y-89285369D01*
X147499996Y-89305565D01*
X147500000Y-89305565D01*
X147500004Y-89305565D01*
X147679249Y-89285369D01*
X147679252Y-89285368D01*
X147679255Y-89285368D01*
X147849522Y-89225789D01*
X147890571Y-89199996D01*
X148894435Y-89199996D01*
X148894435Y-89200003D01*
X148914630Y-89379249D01*
X148914631Y-89379254D01*
X148974211Y-89549523D01*
X149054475Y-89677262D01*
X149070184Y-89702262D01*
X149197738Y-89829816D01*
X149350478Y-89925789D01*
X149449299Y-89960368D01*
X149520745Y-89985368D01*
X149520750Y-89985369D01*
X149699996Y-90005565D01*
X149700000Y-90005565D01*
X149700004Y-90005565D01*
X149879249Y-89985369D01*
X149879252Y-89985368D01*
X149879255Y-89985368D01*
X150049522Y-89925789D01*
X150202262Y-89829816D01*
X150329816Y-89702262D01*
X150425789Y-89549522D01*
X150485368Y-89379255D01*
X150488185Y-89354254D01*
X150505565Y-89200003D01*
X150505565Y-89199996D01*
X150485369Y-89020750D01*
X150485368Y-89020745D01*
X150425789Y-88850478D01*
X150425188Y-88849522D01*
X150360321Y-88746286D01*
X150329816Y-88697738D01*
X150202262Y-88570184D01*
X150158079Y-88542422D01*
X150049523Y-88474211D01*
X149879254Y-88414631D01*
X149879249Y-88414630D01*
X149700004Y-88394435D01*
X149699996Y-88394435D01*
X149520750Y-88414630D01*
X149520745Y-88414631D01*
X149350476Y-88474211D01*
X149197737Y-88570184D01*
X149070184Y-88697737D01*
X148974211Y-88850476D01*
X148914631Y-89020745D01*
X148914630Y-89020750D01*
X148894435Y-89199996D01*
X147890571Y-89199996D01*
X148002262Y-89129816D01*
X148129816Y-89002262D01*
X148225789Y-88849522D01*
X148285368Y-88679255D01*
X148285369Y-88679249D01*
X148305565Y-88500003D01*
X148305565Y-88499996D01*
X148285369Y-88320750D01*
X148285368Y-88320745D01*
X148275340Y-88292086D01*
X148225789Y-88150478D01*
X148129816Y-87997738D01*
X148002262Y-87870184D01*
X147849523Y-87774211D01*
X147679254Y-87714631D01*
X147679249Y-87714630D01*
X147500004Y-87694435D01*
X147499996Y-87694435D01*
X147320750Y-87714630D01*
X147320745Y-87714631D01*
X147150476Y-87774211D01*
X146997737Y-87870184D01*
X146870184Y-87997737D01*
X146774211Y-88150476D01*
X146714631Y-88320745D01*
X146714630Y-88320750D01*
X146694435Y-88499996D01*
X146694435Y-88500003D01*
X146715140Y-88683773D01*
X146703085Y-88752595D01*
X146655736Y-88803974D01*
X146588126Y-88821598D01*
X146521720Y-88799871D01*
X146486926Y-88763628D01*
X146429816Y-88672738D01*
X146302262Y-88545184D01*
X146230357Y-88500003D01*
X146149523Y-88449211D01*
X145979254Y-88389631D01*
X145979249Y-88389630D01*
X145800004Y-88369435D01*
X145799996Y-88369435D01*
X145620750Y-88389630D01*
X145620745Y-88389631D01*
X145450476Y-88449211D01*
X145297737Y-88545184D01*
X145170184Y-88672737D01*
X145074211Y-88825476D01*
X145014631Y-88995745D01*
X145014630Y-88995750D01*
X144994435Y-89174996D01*
X130430359Y-89174996D01*
X130502262Y-89129816D01*
X130629816Y-89002262D01*
X130725789Y-88849522D01*
X130785368Y-88679255D01*
X130785369Y-88679249D01*
X130805565Y-88500003D01*
X130805565Y-88499996D01*
X130785369Y-88320750D01*
X130785368Y-88320745D01*
X130775340Y-88292086D01*
X130725789Y-88150478D01*
X130629816Y-87997738D01*
X130502262Y-87870184D01*
X130349523Y-87774211D01*
X130179254Y-87714631D01*
X130179249Y-87714630D01*
X130000004Y-87694435D01*
X129999996Y-87694435D01*
X129820750Y-87714630D01*
X129820745Y-87714631D01*
X129650476Y-87774211D01*
X129497737Y-87870184D01*
X129370184Y-87997737D01*
X129274211Y-88150476D01*
X129214631Y-88320745D01*
X129214630Y-88320750D01*
X129194435Y-88499996D01*
X105074278Y-88499996D01*
X105092086Y-88493354D01*
X105092093Y-88493350D01*
X105207187Y-88407190D01*
X105207190Y-88407187D01*
X105293350Y-88292093D01*
X105293354Y-88292086D01*
X105343596Y-88157379D01*
X105343598Y-88157372D01*
X105349999Y-88097844D01*
X105350000Y-88097827D01*
X105350000Y-87450000D01*
X104433012Y-87450000D01*
X104465925Y-87392993D01*
X104500000Y-87265826D01*
X104500000Y-87134174D01*
X104465925Y-87007007D01*
X104433012Y-86950000D01*
X105350000Y-86950000D01*
X105350000Y-86302172D01*
X105349999Y-86302155D01*
X105343598Y-86242627D01*
X105343596Y-86242620D01*
X105293354Y-86107913D01*
X105293350Y-86107906D01*
X105207190Y-85992812D01*
X105207187Y-85992809D01*
X105092093Y-85906649D01*
X105092086Y-85906645D01*
X104957379Y-85856403D01*
X104957372Y-85856401D01*
X104897844Y-85850000D01*
X104250000Y-85850000D01*
X104250000Y-86766988D01*
X104192993Y-86734075D01*
X104065826Y-86700000D01*
X103934174Y-86700000D01*
X103807007Y-86734075D01*
X103750000Y-86766988D01*
X103750000Y-85850000D01*
X103102155Y-85850000D01*
X103042627Y-85856401D01*
X103042620Y-85856403D01*
X102907913Y-85906645D01*
X102907906Y-85906649D01*
X102792812Y-85992809D01*
X102792809Y-85992812D01*
X102706649Y-86107906D01*
X102706645Y-86107913D01*
X102656403Y-86242620D01*
X102656401Y-86242627D01*
X102650000Y-86302155D01*
X102650000Y-86950000D01*
X103566988Y-86950000D01*
X103534075Y-87007007D01*
X103500000Y-87134174D01*
X103500000Y-87265826D01*
X103534075Y-87392993D01*
X103566988Y-87450000D01*
X102650000Y-87450000D01*
X102650000Y-88097844D01*
X102656401Y-88157372D01*
X102656403Y-88157379D01*
X102706645Y-88292086D01*
X102706649Y-88292093D01*
X102792809Y-88407187D01*
X102792812Y-88407190D01*
X102907906Y-88493350D01*
X102907913Y-88493354D01*
X103039470Y-88542421D01*
X103095403Y-88584292D01*
X103119821Y-88649756D01*
X103104970Y-88718029D01*
X103083819Y-88746284D01*
X102961503Y-88868600D01*
X102825965Y-89062169D01*
X102825964Y-89062171D01*
X102726098Y-89276335D01*
X102726094Y-89276344D01*
X102664938Y-89504586D01*
X102664936Y-89504596D01*
X102644341Y-89739999D01*
X100000000Y-89739999D01*
X100000000Y-84899996D01*
X139894435Y-84899996D01*
X139894435Y-84900003D01*
X139914630Y-85079249D01*
X139914631Y-85079254D01*
X139974211Y-85249523D01*
X140070184Y-85402262D01*
X140130241Y-85462319D01*
X140163726Y-85523642D01*
X140158742Y-85593334D01*
X140130241Y-85637681D01*
X140070184Y-85697737D01*
X139974211Y-85850476D01*
X139914631Y-86020745D01*
X139914630Y-86020750D01*
X139894435Y-86199996D01*
X139894435Y-86200003D01*
X139914630Y-86379249D01*
X139914631Y-86379254D01*
X139974211Y-86549523D01*
X140068763Y-86700000D01*
X140070184Y-86702262D01*
X140197738Y-86829816D01*
X140288080Y-86886582D01*
X140298283Y-86892993D01*
X140350478Y-86925789D01*
X140520745Y-86985368D01*
X140520750Y-86985369D01*
X140699996Y-87005565D01*
X140700000Y-87005565D01*
X140700004Y-87005565D01*
X140879249Y-86985369D01*
X140879252Y-86985368D01*
X140879255Y-86985368D01*
X141049522Y-86925789D01*
X141202262Y-86829816D01*
X141329816Y-86702262D01*
X141425789Y-86549522D01*
X141485368Y-86379255D01*
X141505565Y-86200000D01*
X141495189Y-86107913D01*
X141485369Y-86020750D01*
X141485368Y-86020745D01*
X141445444Y-85906649D01*
X141425789Y-85850478D01*
X141329816Y-85697738D01*
X141269759Y-85637681D01*
X141236274Y-85576358D01*
X141241258Y-85506666D01*
X141269759Y-85462319D01*
X141329816Y-85402262D01*
X141425789Y-85249522D01*
X141485368Y-85079255D01*
X141505565Y-84900000D01*
X141498248Y-84835063D01*
X141485369Y-84720750D01*
X141485368Y-84720745D01*
X141425788Y-84550476D01*
X141340702Y-84415063D01*
X141329816Y-84397738D01*
X141202262Y-84270184D01*
X141176561Y-84254035D01*
X141049523Y-84174211D01*
X140879254Y-84114631D01*
X140879249Y-84114630D01*
X140700004Y-84094435D01*
X140699996Y-84094435D01*
X140520750Y-84114630D01*
X140520745Y-84114631D01*
X140350476Y-84174211D01*
X140197737Y-84270184D01*
X140070184Y-84397737D01*
X139974211Y-84550476D01*
X139914631Y-84720745D01*
X139914630Y-84720750D01*
X139894435Y-84899996D01*
X100000000Y-84899996D01*
X100000000Y-77999999D01*
X102644341Y-77999999D01*
X102644341Y-78000000D01*
X102664936Y-78235403D01*
X102664938Y-78235413D01*
X102726094Y-78463655D01*
X102726096Y-78463659D01*
X102726097Y-78463663D01*
X102731016Y-78474211D01*
X102825965Y-78677830D01*
X102825967Y-78677834D01*
X102961501Y-78871395D01*
X102961506Y-78871402D01*
X103128597Y-79038493D01*
X103128603Y-79038498D01*
X103314158Y-79168425D01*
X103357783Y-79223002D01*
X103364977Y-79292500D01*
X103333454Y-79354855D01*
X103314158Y-79371575D01*
X103128597Y-79501505D01*
X102961505Y-79668597D01*
X102825965Y-79862169D01*
X102825964Y-79862171D01*
X102726098Y-80076335D01*
X102726094Y-80076344D01*
X102664938Y-80304586D01*
X102664936Y-80304596D01*
X102644341Y-80539999D01*
X102644341Y-80540000D01*
X102664936Y-80775403D01*
X102664938Y-80775413D01*
X102726094Y-81003655D01*
X102726096Y-81003659D01*
X102726097Y-81003663D01*
X102815507Y-81195403D01*
X102825965Y-81217830D01*
X102825967Y-81217834D01*
X102961501Y-81411395D01*
X102961506Y-81411402D01*
X103128597Y-81578493D01*
X103128603Y-81578498D01*
X103314158Y-81708425D01*
X103357783Y-81763002D01*
X103364977Y-81832500D01*
X103333454Y-81894855D01*
X103314158Y-81911575D01*
X103128597Y-82041505D01*
X102961505Y-82208597D01*
X102825965Y-82402169D01*
X102825964Y-82402171D01*
X102726098Y-82616335D01*
X102726094Y-82616344D01*
X102664938Y-82844586D01*
X102664936Y-82844596D01*
X102644341Y-83079999D01*
X102644341Y-83080000D01*
X102664936Y-83315403D01*
X102664938Y-83315413D01*
X102726094Y-83543655D01*
X102726096Y-83543659D01*
X102726097Y-83543663D01*
X102815507Y-83735403D01*
X102825965Y-83757830D01*
X102825967Y-83757834D01*
X102934281Y-83912521D01*
X102961505Y-83951401D01*
X103128599Y-84118495D01*
X103208170Y-84174211D01*
X103322165Y-84254032D01*
X103322167Y-84254033D01*
X103322170Y-84254035D01*
X103536337Y-84353903D01*
X103764592Y-84415063D01*
X103952918Y-84431539D01*
X103999999Y-84435659D01*
X104000000Y-84435659D01*
X104000001Y-84435659D01*
X104039234Y-84432226D01*
X104235408Y-84415063D01*
X104463663Y-84353903D01*
X104677830Y-84254035D01*
X104871401Y-84118495D01*
X105038495Y-83951401D01*
X105174035Y-83757830D01*
X105273903Y-83543663D01*
X105335063Y-83315408D01*
X105355659Y-83080000D01*
X105335063Y-82844592D01*
X105273903Y-82616337D01*
X105174035Y-82402171D01*
X105124604Y-82331575D01*
X105038494Y-82208597D01*
X104871402Y-82041506D01*
X104871396Y-82041501D01*
X104685842Y-81911575D01*
X104642217Y-81856998D01*
X104635023Y-81787500D01*
X104666546Y-81725145D01*
X104685842Y-81708425D01*
X104786662Y-81637830D01*
X104871401Y-81578495D01*
X105038495Y-81411401D01*
X105174035Y-81217830D01*
X105273903Y-81003663D01*
X105335063Y-80775408D01*
X105355659Y-80540000D01*
X105335063Y-80304592D01*
X105273903Y-80076337D01*
X105174035Y-79862171D01*
X105151380Y-79829815D01*
X105038494Y-79668597D01*
X104871402Y-79501506D01*
X104871396Y-79501501D01*
X104685842Y-79371575D01*
X104642217Y-79316998D01*
X104635023Y-79247500D01*
X104659038Y-79199996D01*
X126494435Y-79199996D01*
X126494435Y-79200003D01*
X126514630Y-79379249D01*
X126514631Y-79379254D01*
X126574211Y-79549523D01*
X126649031Y-79668597D01*
X126670184Y-79702262D01*
X126797738Y-79829816D01*
X126849231Y-79862171D01*
X126943661Y-79921506D01*
X126950478Y-79925789D01*
X127120745Y-79985368D01*
X127120750Y-79985369D01*
X127299996Y-80005565D01*
X127300000Y-80005565D01*
X127300004Y-80005565D01*
X127479249Y-79985369D01*
X127479252Y-79985368D01*
X127479255Y-79985368D01*
X127649522Y-79925789D01*
X127802262Y-79829816D01*
X127929816Y-79702262D01*
X128025789Y-79549522D01*
X128085368Y-79379255D01*
X128085369Y-79379249D01*
X128105565Y-79200003D01*
X128105565Y-79199996D01*
X128085369Y-79020750D01*
X128085368Y-79020745D01*
X128037398Y-78883655D01*
X128025789Y-78850478D01*
X127929816Y-78697738D01*
X127802262Y-78570184D01*
X127649523Y-78474211D01*
X127494595Y-78419999D01*
X154144341Y-78419999D01*
X154144341Y-78420000D01*
X154164936Y-78655403D01*
X154164938Y-78655413D01*
X154226094Y-78883655D01*
X154226096Y-78883659D01*
X154226097Y-78883663D01*
X154290020Y-79020745D01*
X154325965Y-79097830D01*
X154325967Y-79097834D01*
X154461501Y-79291395D01*
X154461506Y-79291402D01*
X154628597Y-79458493D01*
X154628603Y-79458498D01*
X154814158Y-79588425D01*
X154857783Y-79643002D01*
X154864977Y-79712500D01*
X154833454Y-79774855D01*
X154814158Y-79791575D01*
X154628597Y-79921505D01*
X154461505Y-80088597D01*
X154325965Y-80282169D01*
X154325964Y-80282171D01*
X154226098Y-80496335D01*
X154226094Y-80496344D01*
X154164938Y-80724586D01*
X154164936Y-80724596D01*
X154144341Y-80959999D01*
X154144341Y-80960000D01*
X154164936Y-81195403D01*
X154164938Y-81195413D01*
X154226094Y-81423655D01*
X154226096Y-81423659D01*
X154226097Y-81423663D01*
X154298296Y-81578493D01*
X154325965Y-81637830D01*
X154325967Y-81637834D01*
X154461501Y-81831395D01*
X154461506Y-81831402D01*
X154628597Y-81998493D01*
X154628603Y-81998498D01*
X154814158Y-82128425D01*
X154857783Y-82183002D01*
X154864977Y-82252500D01*
X154833454Y-82314855D01*
X154814158Y-82331575D01*
X154628597Y-82461505D01*
X154461505Y-82628597D01*
X154325965Y-82822169D01*
X154325964Y-82822171D01*
X154226098Y-83036335D01*
X154226094Y-83036344D01*
X154164938Y-83264586D01*
X154164936Y-83264596D01*
X154144341Y-83499999D01*
X154144341Y-83500000D01*
X154164936Y-83735403D01*
X154164938Y-83735413D01*
X154226094Y-83963655D01*
X154226096Y-83963659D01*
X154226097Y-83963663D01*
X154287077Y-84094435D01*
X154325965Y-84177830D01*
X154325967Y-84177834D01*
X154379324Y-84254035D01*
X154461505Y-84371401D01*
X154628599Y-84538495D01*
X154725384Y-84606265D01*
X154822165Y-84674032D01*
X154822167Y-84674033D01*
X154822170Y-84674035D01*
X155036337Y-84773903D01*
X155264592Y-84835063D01*
X155452918Y-84851539D01*
X155499999Y-84855659D01*
X155500000Y-84855659D01*
X155500001Y-84855659D01*
X155539234Y-84852226D01*
X155735408Y-84835063D01*
X155963663Y-84773903D01*
X156177830Y-84674035D01*
X156371401Y-84538495D01*
X156538495Y-84371401D01*
X156674035Y-84177830D01*
X156773903Y-83963663D01*
X156835063Y-83735408D01*
X156855659Y-83500000D01*
X156835063Y-83264592D01*
X156773903Y-83036337D01*
X156674035Y-82822171D01*
X156538495Y-82628599D01*
X156538494Y-82628597D01*
X156371402Y-82461506D01*
X156371396Y-82461501D01*
X156185842Y-82331575D01*
X156142217Y-82276998D01*
X156135023Y-82207500D01*
X156166546Y-82145145D01*
X156185842Y-82128425D01*
X156309982Y-82041501D01*
X156371401Y-81998495D01*
X156538495Y-81831401D01*
X156674035Y-81637830D01*
X156773903Y-81423663D01*
X156835063Y-81195408D01*
X156855659Y-80960000D01*
X156835063Y-80724592D01*
X156773903Y-80496337D01*
X156674035Y-80282171D01*
X156538495Y-80088599D01*
X156538494Y-80088597D01*
X156371402Y-79921506D01*
X156371396Y-79921501D01*
X156185842Y-79791575D01*
X156142217Y-79736998D01*
X156135023Y-79667500D01*
X156166546Y-79605145D01*
X156185842Y-79588425D01*
X156309982Y-79501501D01*
X156371401Y-79458495D01*
X156538495Y-79291401D01*
X156674035Y-79097830D01*
X156773903Y-78883663D01*
X156835063Y-78655408D01*
X156855659Y-78420000D01*
X156835063Y-78184592D01*
X156773903Y-77956337D01*
X156674035Y-77742171D01*
X156665383Y-77729815D01*
X156538496Y-77548600D01*
X156492158Y-77502262D01*
X156416179Y-77426283D01*
X156382696Y-77364963D01*
X156387680Y-77295271D01*
X156429551Y-77239337D01*
X156460529Y-77222422D01*
X156592086Y-77173354D01*
X156592093Y-77173350D01*
X156707187Y-77087190D01*
X156707190Y-77087187D01*
X156793350Y-76972093D01*
X156793354Y-76972086D01*
X156843596Y-76837379D01*
X156843598Y-76837372D01*
X156849999Y-76777844D01*
X156850000Y-76777827D01*
X156850000Y-76130000D01*
X155933012Y-76130000D01*
X155965925Y-76072993D01*
X156000000Y-75945826D01*
X156000000Y-75814174D01*
X155965925Y-75687007D01*
X155933012Y-75630000D01*
X156850000Y-75630000D01*
X156850000Y-74982172D01*
X156849999Y-74982155D01*
X156843598Y-74922627D01*
X156843596Y-74922620D01*
X156793354Y-74787913D01*
X156793350Y-74787906D01*
X156707190Y-74672812D01*
X156707187Y-74672809D01*
X156592093Y-74586649D01*
X156592086Y-74586645D01*
X156457379Y-74536403D01*
X156457372Y-74536401D01*
X156397844Y-74530000D01*
X155750000Y-74530000D01*
X155750000Y-75446988D01*
X155692993Y-75414075D01*
X155565826Y-75380000D01*
X155434174Y-75380000D01*
X155307007Y-75414075D01*
X155250000Y-75446988D01*
X155250000Y-74530000D01*
X154602155Y-74530000D01*
X154542627Y-74536401D01*
X154542620Y-74536403D01*
X154407913Y-74586645D01*
X154407906Y-74586649D01*
X154292812Y-74672809D01*
X154292809Y-74672812D01*
X154206649Y-74787906D01*
X154206645Y-74787913D01*
X154156403Y-74922620D01*
X154156401Y-74922627D01*
X154150000Y-74982155D01*
X154150000Y-75630000D01*
X155066988Y-75630000D01*
X155034075Y-75687007D01*
X155000000Y-75814174D01*
X155000000Y-75945826D01*
X155034075Y-76072993D01*
X155066988Y-76130000D01*
X154150000Y-76130000D01*
X154150000Y-76777844D01*
X154156401Y-76837372D01*
X154156403Y-76837379D01*
X154206645Y-76972086D01*
X154206649Y-76972093D01*
X154292809Y-77087187D01*
X154292812Y-77087190D01*
X154407906Y-77173350D01*
X154407913Y-77173354D01*
X154539470Y-77222421D01*
X154595403Y-77264292D01*
X154619821Y-77329756D01*
X154604970Y-77398029D01*
X154583819Y-77426284D01*
X154461503Y-77548600D01*
X154325965Y-77742169D01*
X154325964Y-77742171D01*
X154226098Y-77956335D01*
X154226094Y-77956344D01*
X154164938Y-78184586D01*
X154164936Y-78184596D01*
X154144341Y-78419999D01*
X127494595Y-78419999D01*
X127479254Y-78414631D01*
X127479249Y-78414630D01*
X127300004Y-78394435D01*
X127299996Y-78394435D01*
X127120750Y-78414630D01*
X127120745Y-78414631D01*
X126950476Y-78474211D01*
X126797737Y-78570184D01*
X126670184Y-78697737D01*
X126574211Y-78850476D01*
X126514631Y-79020745D01*
X126514630Y-79020750D01*
X126494435Y-79199996D01*
X104659038Y-79199996D01*
X104666546Y-79185145D01*
X104685842Y-79168425D01*
X104786662Y-79097830D01*
X104871401Y-79038495D01*
X105038495Y-78871401D01*
X105174035Y-78677830D01*
X105273903Y-78463663D01*
X105335063Y-78235408D01*
X105355659Y-78000000D01*
X105335063Y-77764592D01*
X105273903Y-77536337D01*
X105174035Y-77322171D01*
X105162407Y-77305565D01*
X105038496Y-77128600D01*
X104994833Y-77084937D01*
X104916179Y-77006283D01*
X104882696Y-76944963D01*
X104887680Y-76875271D01*
X104929551Y-76819337D01*
X104960529Y-76802422D01*
X105092086Y-76753354D01*
X105092093Y-76753350D01*
X105207187Y-76667190D01*
X105207190Y-76667187D01*
X105293350Y-76552093D01*
X105293354Y-76552086D01*
X105312782Y-76499996D01*
X112694435Y-76499996D01*
X112694435Y-76500003D01*
X112714630Y-76679249D01*
X112714631Y-76679254D01*
X112774211Y-76849523D01*
X112854957Y-76978029D01*
X112870184Y-77002262D01*
X112997738Y-77129816D01*
X113067022Y-77173350D01*
X113145117Y-77222421D01*
X113150478Y-77225789D01*
X113303258Y-77279249D01*
X113320745Y-77285368D01*
X113320750Y-77285369D01*
X113499996Y-77305565D01*
X113500000Y-77305565D01*
X113500004Y-77305565D01*
X113679249Y-77285369D01*
X113679252Y-77285368D01*
X113679255Y-77285368D01*
X113849522Y-77225789D01*
X114002262Y-77129816D01*
X114129816Y-77002262D01*
X114225789Y-76849522D01*
X114285368Y-76679255D01*
X114285369Y-76679249D01*
X114305565Y-76500003D01*
X114305565Y-76499996D01*
X117194435Y-76499996D01*
X117194435Y-76500003D01*
X117214630Y-76679249D01*
X117214631Y-76679254D01*
X117274211Y-76849523D01*
X117354957Y-76978029D01*
X117370184Y-77002262D01*
X117497738Y-77129816D01*
X117567022Y-77173350D01*
X117645117Y-77222421D01*
X117650478Y-77225789D01*
X117803258Y-77279249D01*
X117820745Y-77285368D01*
X117820750Y-77285369D01*
X117999996Y-77305565D01*
X118000000Y-77305565D01*
X118000004Y-77305565D01*
X118179249Y-77285369D01*
X118179252Y-77285368D01*
X118179255Y-77285368D01*
X118349522Y-77225789D01*
X118502262Y-77129816D01*
X118629816Y-77002262D01*
X118631240Y-76999996D01*
X126494435Y-76999996D01*
X126494435Y-77000003D01*
X126514630Y-77179249D01*
X126514631Y-77179254D01*
X126574211Y-77349523D01*
X126622445Y-77426286D01*
X126670184Y-77502262D01*
X126797738Y-77629816D01*
X126950478Y-77725789D01*
X127061371Y-77764592D01*
X127120745Y-77785368D01*
X127120750Y-77785369D01*
X127299996Y-77805565D01*
X127300000Y-77805565D01*
X127300004Y-77805565D01*
X127479249Y-77785369D01*
X127479252Y-77785368D01*
X127479255Y-77785368D01*
X127649522Y-77725789D01*
X127802262Y-77629816D01*
X127929816Y-77502262D01*
X128025789Y-77349522D01*
X128085368Y-77179255D01*
X128086033Y-77173354D01*
X128105565Y-77000003D01*
X128105565Y-76999996D01*
X131694435Y-76999996D01*
X131694435Y-77000003D01*
X131714630Y-77179249D01*
X131714631Y-77179254D01*
X131774211Y-77349523D01*
X131822445Y-77426286D01*
X131870184Y-77502262D01*
X131997738Y-77629816D01*
X132150478Y-77725789D01*
X132261371Y-77764592D01*
X132320745Y-77785368D01*
X132320750Y-77785369D01*
X132499996Y-77805565D01*
X132500000Y-77805565D01*
X132500004Y-77805565D01*
X132679249Y-77785369D01*
X132679252Y-77785368D01*
X132679255Y-77785368D01*
X132849522Y-77725789D01*
X132934027Y-77672691D01*
X133001264Y-77653690D01*
X133065973Y-77672691D01*
X133150475Y-77725788D01*
X133320745Y-77785368D01*
X133320750Y-77785369D01*
X133499996Y-77805565D01*
X133500000Y-77805565D01*
X133500004Y-77805565D01*
X133679249Y-77785369D01*
X133679252Y-77785368D01*
X133679255Y-77785368D01*
X133849522Y-77725789D01*
X134002262Y-77629816D01*
X134129816Y-77502262D01*
X134225789Y-77349522D01*
X134285368Y-77179255D01*
X134286033Y-77173354D01*
X134305565Y-77000003D01*
X134305565Y-76999996D01*
X134285369Y-76820750D01*
X134285368Y-76820745D01*
X134284875Y-76819337D01*
X134278107Y-76799996D01*
X137894435Y-76799996D01*
X137894435Y-76800003D01*
X137914630Y-76979249D01*
X137914631Y-76979254D01*
X137974211Y-77149523D01*
X138034810Y-77245965D01*
X138070184Y-77302262D01*
X138197738Y-77429816D01*
X138350478Y-77525789D01*
X138520745Y-77585368D01*
X138520750Y-77585369D01*
X138699996Y-77605565D01*
X138700000Y-77605565D01*
X138700004Y-77605565D01*
X138879249Y-77585369D01*
X138879252Y-77585368D01*
X138879255Y-77585368D01*
X139049522Y-77525789D01*
X139202262Y-77429816D01*
X139329816Y-77302262D01*
X139425789Y-77149522D01*
X139443119Y-77099996D01*
X141694435Y-77099996D01*
X141694435Y-77100003D01*
X141714630Y-77279249D01*
X141714631Y-77279254D01*
X141774211Y-77449523D01*
X141828765Y-77536344D01*
X141870184Y-77602262D01*
X141997738Y-77729816D01*
X142150478Y-77825789D01*
X142320745Y-77885368D01*
X142320750Y-77885369D01*
X142499996Y-77905565D01*
X142500000Y-77905565D01*
X142500004Y-77905565D01*
X142679249Y-77885369D01*
X142679252Y-77885368D01*
X142679255Y-77885368D01*
X142849522Y-77825789D01*
X143002262Y-77729816D01*
X143129816Y-77602262D01*
X143225789Y-77449522D01*
X143285368Y-77279255D01*
X143291392Y-77225789D01*
X143305565Y-77100003D01*
X143305565Y-77099996D01*
X143285369Y-76920750D01*
X143285368Y-76920745D01*
X143256197Y-76837379D01*
X143225789Y-76750478D01*
X143210469Y-76726097D01*
X143162955Y-76650478D01*
X143129816Y-76597738D01*
X143002262Y-76470184D01*
X142970897Y-76450476D01*
X142849523Y-76374211D01*
X142679254Y-76314631D01*
X142679249Y-76314630D01*
X142500004Y-76294435D01*
X142499996Y-76294435D01*
X142320750Y-76314630D01*
X142320745Y-76314631D01*
X142150476Y-76374211D01*
X141997737Y-76470184D01*
X141870184Y-76597737D01*
X141774211Y-76750476D01*
X141714631Y-76920745D01*
X141714630Y-76920750D01*
X141694435Y-77099996D01*
X139443119Y-77099996D01*
X139485368Y-76979255D01*
X139491960Y-76920750D01*
X139505565Y-76800003D01*
X139505565Y-76799996D01*
X139485369Y-76620750D01*
X139485368Y-76620745D01*
X139425789Y-76450478D01*
X139404991Y-76417379D01*
X139360094Y-76345925D01*
X139329816Y-76297738D01*
X139202262Y-76170184D01*
X139138310Y-76130000D01*
X139049523Y-76074211D01*
X138879254Y-76014631D01*
X138879249Y-76014630D01*
X138700004Y-75994435D01*
X138699996Y-75994435D01*
X138520750Y-76014630D01*
X138520745Y-76014631D01*
X138350476Y-76074211D01*
X138197737Y-76170184D01*
X138070184Y-76297737D01*
X137974211Y-76450476D01*
X137914631Y-76620745D01*
X137914630Y-76620750D01*
X137894435Y-76799996D01*
X134278107Y-76799996D01*
X134225789Y-76650478D01*
X134207106Y-76620745D01*
X134186582Y-76588080D01*
X134129816Y-76497738D01*
X134002262Y-76370184D01*
X133934027Y-76327309D01*
X133849523Y-76274211D01*
X133679254Y-76214631D01*
X133679249Y-76214630D01*
X133500004Y-76194435D01*
X133499996Y-76194435D01*
X133320750Y-76214630D01*
X133320737Y-76214633D01*
X133150479Y-76274209D01*
X133065971Y-76327309D01*
X132998734Y-76346309D01*
X132934029Y-76327309D01*
X132849520Y-76274209D01*
X132679262Y-76214633D01*
X132679249Y-76214630D01*
X132500004Y-76194435D01*
X132499996Y-76194435D01*
X132320750Y-76214630D01*
X132320745Y-76214631D01*
X132150476Y-76274211D01*
X131997737Y-76370184D01*
X131870184Y-76497737D01*
X131774211Y-76650476D01*
X131714631Y-76820745D01*
X131714630Y-76820750D01*
X131694435Y-76999996D01*
X128105565Y-76999996D01*
X128085369Y-76820750D01*
X128085368Y-76820745D01*
X128084875Y-76819337D01*
X128025789Y-76650478D01*
X128007106Y-76620745D01*
X127986582Y-76588080D01*
X127929816Y-76497738D01*
X127802262Y-76370184D01*
X127734027Y-76327309D01*
X127649523Y-76274211D01*
X127479254Y-76214631D01*
X127479249Y-76214630D01*
X127300004Y-76194435D01*
X127299996Y-76194435D01*
X127120750Y-76214630D01*
X127120745Y-76214631D01*
X126950476Y-76274211D01*
X126797737Y-76370184D01*
X126670184Y-76497737D01*
X126574211Y-76650476D01*
X126514631Y-76820745D01*
X126514630Y-76820750D01*
X126494435Y-76999996D01*
X118631240Y-76999996D01*
X118725789Y-76849522D01*
X118785368Y-76679255D01*
X118785369Y-76679249D01*
X118805565Y-76500003D01*
X118805565Y-76499996D01*
X118785369Y-76320750D01*
X118785368Y-76320745D01*
X118783228Y-76314630D01*
X118725789Y-76150478D01*
X118629816Y-75997738D01*
X118502262Y-75870184D01*
X118413123Y-75814174D01*
X118349523Y-75774211D01*
X118179254Y-75714631D01*
X118179249Y-75714630D01*
X118000004Y-75694435D01*
X117999996Y-75694435D01*
X117820750Y-75714630D01*
X117820745Y-75714631D01*
X117650476Y-75774211D01*
X117497737Y-75870184D01*
X117370184Y-75997737D01*
X117274211Y-76150476D01*
X117214631Y-76320745D01*
X117214630Y-76320750D01*
X117194435Y-76499996D01*
X114305565Y-76499996D01*
X114285369Y-76320750D01*
X114285368Y-76320745D01*
X114283228Y-76314630D01*
X114225789Y-76150478D01*
X114129816Y-75997738D01*
X114002262Y-75870184D01*
X113913123Y-75814174D01*
X113849523Y-75774211D01*
X113679254Y-75714631D01*
X113679249Y-75714630D01*
X113500004Y-75694435D01*
X113499996Y-75694435D01*
X113320750Y-75714630D01*
X113320745Y-75714631D01*
X113150476Y-75774211D01*
X112997737Y-75870184D01*
X112870184Y-75997737D01*
X112774211Y-76150476D01*
X112714631Y-76320745D01*
X112714630Y-76320750D01*
X112694435Y-76499996D01*
X105312782Y-76499996D01*
X105343596Y-76417379D01*
X105343598Y-76417372D01*
X105349999Y-76357844D01*
X105350000Y-76357827D01*
X105350000Y-75710000D01*
X104433012Y-75710000D01*
X104465925Y-75652993D01*
X104500000Y-75525826D01*
X104500000Y-75394174D01*
X104465925Y-75267007D01*
X104433012Y-75210000D01*
X105350000Y-75210000D01*
X105350000Y-74562172D01*
X105349999Y-74562155D01*
X105343598Y-74502627D01*
X105343596Y-74502620D01*
X105293354Y-74367913D01*
X105293350Y-74367906D01*
X105207190Y-74252812D01*
X105207187Y-74252809D01*
X105092093Y-74166649D01*
X105092086Y-74166645D01*
X104957379Y-74116403D01*
X104957372Y-74116401D01*
X104897844Y-74110000D01*
X104250000Y-74110000D01*
X104250000Y-75026988D01*
X104192993Y-74994075D01*
X104065826Y-74960000D01*
X103934174Y-74960000D01*
X103807007Y-74994075D01*
X103750000Y-75026988D01*
X103750000Y-74110000D01*
X103102155Y-74110000D01*
X103042627Y-74116401D01*
X103042620Y-74116403D01*
X102907913Y-74166645D01*
X102907906Y-74166649D01*
X102792812Y-74252809D01*
X102792809Y-74252812D01*
X102706649Y-74367906D01*
X102706645Y-74367913D01*
X102656403Y-74502620D01*
X102656401Y-74502627D01*
X102650000Y-74562155D01*
X102650000Y-75210000D01*
X103566988Y-75210000D01*
X103534075Y-75267007D01*
X103500000Y-75394174D01*
X103500000Y-75525826D01*
X103534075Y-75652993D01*
X103566988Y-75710000D01*
X102650000Y-75710000D01*
X102650000Y-76357844D01*
X102656401Y-76417372D01*
X102656403Y-76417379D01*
X102706645Y-76552086D01*
X102706649Y-76552093D01*
X102792809Y-76667187D01*
X102792812Y-76667190D01*
X102907906Y-76753350D01*
X102907913Y-76753354D01*
X103039470Y-76802421D01*
X103095403Y-76844292D01*
X103119821Y-76909756D01*
X103104970Y-76978029D01*
X103083819Y-77006284D01*
X102961503Y-77128600D01*
X102825965Y-77322169D01*
X102825964Y-77322171D01*
X102726098Y-77536335D01*
X102726094Y-77536344D01*
X102664938Y-77764586D01*
X102664936Y-77764596D01*
X102644341Y-77999999D01*
X100000000Y-77999999D01*
X100000000Y-65919999D01*
X102644341Y-65919999D01*
X102644341Y-65920000D01*
X102664936Y-66155403D01*
X102664938Y-66155413D01*
X102726094Y-66383655D01*
X102726096Y-66383659D01*
X102726097Y-66383663D01*
X102782941Y-66505565D01*
X102825965Y-66597830D01*
X102825967Y-66597834D01*
X102907749Y-66714630D01*
X102949468Y-66774211D01*
X102961501Y-66791395D01*
X102961506Y-66791402D01*
X103128597Y-66958493D01*
X103128603Y-66958498D01*
X103314158Y-67088425D01*
X103357783Y-67143002D01*
X103364977Y-67212500D01*
X103333454Y-67274855D01*
X103314158Y-67291575D01*
X103128597Y-67421505D01*
X102961505Y-67588597D01*
X102825965Y-67782169D01*
X102825964Y-67782171D01*
X102726098Y-67996335D01*
X102726094Y-67996344D01*
X102664938Y-68224586D01*
X102664936Y-68224596D01*
X102644341Y-68459999D01*
X102644341Y-68460000D01*
X102664936Y-68695403D01*
X102664938Y-68695413D01*
X102726094Y-68923655D01*
X102726096Y-68923659D01*
X102726097Y-68923663D01*
X102810920Y-69105565D01*
X102825965Y-69137830D01*
X102825967Y-69137834D01*
X102904173Y-69249523D01*
X102957575Y-69325789D01*
X102961501Y-69331395D01*
X102961506Y-69331402D01*
X103128597Y-69498493D01*
X103128603Y-69498498D01*
X103314158Y-69628425D01*
X103357783Y-69683002D01*
X103364977Y-69752500D01*
X103333454Y-69814855D01*
X103314158Y-69831575D01*
X103128597Y-69961505D01*
X102961505Y-70128597D01*
X102825965Y-70322169D01*
X102825964Y-70322171D01*
X102726098Y-70536335D01*
X102726094Y-70536344D01*
X102664938Y-70764586D01*
X102664936Y-70764596D01*
X102644341Y-70999999D01*
X102644341Y-71000000D01*
X102664936Y-71235403D01*
X102664938Y-71235413D01*
X102726094Y-71463655D01*
X102726096Y-71463659D01*
X102726097Y-71463663D01*
X102822400Y-71670184D01*
X102825965Y-71677830D01*
X102825967Y-71677834D01*
X102922295Y-71815403D01*
X102961505Y-71871401D01*
X103128599Y-72038495D01*
X103225384Y-72106265D01*
X103322165Y-72174032D01*
X103322167Y-72174033D01*
X103322170Y-72174035D01*
X103536337Y-72273903D01*
X103764592Y-72335063D01*
X103929867Y-72349523D01*
X103999999Y-72355659D01*
X104000000Y-72355659D01*
X104000001Y-72355659D01*
X104039234Y-72352226D01*
X104235408Y-72335063D01*
X104463663Y-72273903D01*
X104677830Y-72174035D01*
X104871401Y-72038495D01*
X105038495Y-71871401D01*
X105174035Y-71677830D01*
X105273903Y-71463663D01*
X105335063Y-71235408D01*
X105346910Y-71099996D01*
X109494435Y-71099996D01*
X109494435Y-71100003D01*
X109514630Y-71279249D01*
X109514633Y-71279262D01*
X109574209Y-71449519D01*
X109595893Y-71484030D01*
X109614892Y-71551267D01*
X109595893Y-71615970D01*
X109574209Y-71650480D01*
X109514633Y-71820737D01*
X109514630Y-71820750D01*
X109494435Y-71999996D01*
X109494435Y-72000003D01*
X109514630Y-72179249D01*
X109514631Y-72179254D01*
X109574211Y-72349523D01*
X109655724Y-72479249D01*
X109670184Y-72502262D01*
X109797738Y-72629816D01*
X109950478Y-72725789D01*
X110120745Y-72785368D01*
X110120750Y-72785369D01*
X110299996Y-72805565D01*
X110300000Y-72805565D01*
X110300004Y-72805565D01*
X110479249Y-72785369D01*
X110479252Y-72785368D01*
X110479255Y-72785368D01*
X110649522Y-72725789D01*
X110802262Y-72629816D01*
X110929816Y-72502262D01*
X111025789Y-72349522D01*
X111043119Y-72299996D01*
X117094435Y-72299996D01*
X117094435Y-72300003D01*
X117114630Y-72479249D01*
X117114631Y-72479254D01*
X117174211Y-72649523D01*
X117237045Y-72749522D01*
X117270184Y-72802262D01*
X117397738Y-72929816D01*
X117550478Y-73025789D01*
X117561984Y-73029815D01*
X117720745Y-73085368D01*
X117720750Y-73085369D01*
X117899996Y-73105565D01*
X117900000Y-73105565D01*
X117900004Y-73105565D01*
X118079249Y-73085369D01*
X118079252Y-73085368D01*
X118079255Y-73085368D01*
X118249522Y-73025789D01*
X118402262Y-72929816D01*
X118529816Y-72802262D01*
X118625789Y-72649522D01*
X118685368Y-72479255D01*
X118685369Y-72479249D01*
X118705565Y-72300003D01*
X118705565Y-72299996D01*
X118685369Y-72120750D01*
X118685368Y-72120745D01*
X118625789Y-71950478D01*
X118529816Y-71797738D01*
X118402262Y-71670184D01*
X118249523Y-71574211D01*
X118079254Y-71514631D01*
X118079249Y-71514630D01*
X117900004Y-71494435D01*
X117899996Y-71494435D01*
X117720750Y-71514630D01*
X117720745Y-71514631D01*
X117550476Y-71574211D01*
X117397737Y-71670184D01*
X117270184Y-71797737D01*
X117174211Y-71950476D01*
X117114631Y-72120745D01*
X117114630Y-72120750D01*
X117094435Y-72299996D01*
X111043119Y-72299996D01*
X111085368Y-72179255D01*
X111085956Y-72174035D01*
X111105565Y-72000003D01*
X111105565Y-71999996D01*
X111085369Y-71820750D01*
X111085367Y-71820742D01*
X111025788Y-71650475D01*
X111004108Y-71615973D01*
X110985107Y-71548737D01*
X111004108Y-71484027D01*
X111025788Y-71449524D01*
X111060446Y-71350478D01*
X111085368Y-71279255D01*
X111090308Y-71235413D01*
X111105565Y-71100003D01*
X111105565Y-71099996D01*
X111085369Y-70920750D01*
X111085368Y-70920745D01*
X111078868Y-70902169D01*
X111025789Y-70750478D01*
X110929816Y-70597738D01*
X110832074Y-70499996D01*
X126194435Y-70499996D01*
X126194435Y-70500003D01*
X126214630Y-70679249D01*
X126214633Y-70679262D01*
X126274209Y-70849520D01*
X126327309Y-70934029D01*
X126346309Y-71001266D01*
X126327309Y-71065971D01*
X126274209Y-71150479D01*
X126214633Y-71320737D01*
X126214630Y-71320750D01*
X126194435Y-71499996D01*
X126194435Y-71500003D01*
X126214630Y-71679249D01*
X126214631Y-71679254D01*
X126274211Y-71849523D01*
X126337646Y-71950478D01*
X126370184Y-72002262D01*
X126497738Y-72129816D01*
X126568112Y-72174035D01*
X126642450Y-72220745D01*
X126650478Y-72225789D01*
X126787974Y-72273901D01*
X126820745Y-72285368D01*
X126820750Y-72285369D01*
X126999996Y-72305565D01*
X127000000Y-72305565D01*
X127000004Y-72305565D01*
X127179249Y-72285369D01*
X127179252Y-72285368D01*
X127179255Y-72285368D01*
X127349522Y-72225789D01*
X127502262Y-72129816D01*
X127629816Y-72002262D01*
X127725789Y-71849522D01*
X127778110Y-71699996D01*
X128094435Y-71699996D01*
X128094435Y-71700003D01*
X128114630Y-71879249D01*
X128114631Y-71879254D01*
X128174211Y-72049523D01*
X128224662Y-72129815D01*
X128270184Y-72202262D01*
X128397738Y-72329816D01*
X128550478Y-72425789D01*
X128623656Y-72451395D01*
X128720745Y-72485368D01*
X128720750Y-72485369D01*
X128899997Y-72505565D01*
X128900864Y-72505565D01*
X128901403Y-72505723D01*
X128906920Y-72506345D01*
X128906811Y-72507311D01*
X128967903Y-72525250D01*
X129013658Y-72578054D01*
X129017906Y-72588611D01*
X129074210Y-72749521D01*
X129139797Y-72853901D01*
X129170184Y-72902262D01*
X129297738Y-73029816D01*
X129450478Y-73125789D01*
X129620745Y-73185368D01*
X129620750Y-73185369D01*
X129799996Y-73205565D01*
X129800000Y-73205565D01*
X129800003Y-73205565D01*
X129881172Y-73196419D01*
X129917082Y-73192373D01*
X129985904Y-73204427D01*
X130037284Y-73251776D01*
X130048008Y-73274638D01*
X130074211Y-73349523D01*
X130170184Y-73502262D01*
X130230571Y-73562649D01*
X130264056Y-73623972D01*
X130259932Y-73691285D01*
X130214631Y-73820745D01*
X130214630Y-73820750D01*
X130194435Y-73999996D01*
X130194435Y-74000003D01*
X130214630Y-74179249D01*
X130214631Y-74179254D01*
X130274211Y-74349523D01*
X130370184Y-74502262D01*
X130497738Y-74629816D01*
X130650478Y-74725789D01*
X130820745Y-74785368D01*
X130820750Y-74785369D01*
X130999996Y-74805565D01*
X131000000Y-74805565D01*
X131000004Y-74805565D01*
X131179249Y-74785369D01*
X131179252Y-74785368D01*
X131179255Y-74785368D01*
X131349522Y-74725789D01*
X131502262Y-74629816D01*
X131629816Y-74502262D01*
X131725789Y-74349522D01*
X131785368Y-74179255D01*
X131785369Y-74179249D01*
X131805565Y-74000003D01*
X131805565Y-73999996D01*
X131785369Y-73820750D01*
X131785368Y-73820745D01*
X131725788Y-73650476D01*
X131670602Y-73562649D01*
X131629816Y-73497738D01*
X131569428Y-73437350D01*
X131535943Y-73376027D01*
X131540067Y-73308715D01*
X131585368Y-73179255D01*
X131585369Y-73179249D01*
X131605565Y-73000003D01*
X131605565Y-72999996D01*
X131585369Y-72820750D01*
X131585368Y-72820745D01*
X131580056Y-72805565D01*
X131525789Y-72650478D01*
X131525188Y-72649522D01*
X131434734Y-72505565D01*
X131429816Y-72497738D01*
X131302262Y-72370184D01*
X131269379Y-72349522D01*
X131149523Y-72274211D01*
X130979254Y-72214631D01*
X130979249Y-72214630D01*
X130800004Y-72194435D01*
X130799996Y-72194435D01*
X130682916Y-72207626D01*
X130614094Y-72195571D01*
X130562715Y-72148222D01*
X130551991Y-72125360D01*
X130525789Y-72050478D01*
X130494073Y-72000003D01*
X130429816Y-71897738D01*
X130302262Y-71770184D01*
X130190570Y-71700003D01*
X130149523Y-71674211D01*
X129979254Y-71614631D01*
X129979249Y-71614630D01*
X129800004Y-71594435D01*
X129799136Y-71594435D01*
X129798595Y-71594276D01*
X129793081Y-71593655D01*
X129793189Y-71592688D01*
X129732097Y-71574750D01*
X129686342Y-71521946D01*
X129682094Y-71511389D01*
X129678107Y-71499996D01*
X129643116Y-71399996D01*
X136794435Y-71399996D01*
X136794435Y-71400003D01*
X136814630Y-71579249D01*
X136814631Y-71579254D01*
X136874211Y-71749523D01*
X136937045Y-71849522D01*
X136970184Y-71902262D01*
X137097738Y-72029816D01*
X137188080Y-72086582D01*
X137242450Y-72120745D01*
X137250478Y-72125789D01*
X137261984Y-72129815D01*
X137420745Y-72185368D01*
X137420750Y-72185369D01*
X137599996Y-72205565D01*
X137600000Y-72205565D01*
X137600004Y-72205565D01*
X137779249Y-72185369D01*
X137779252Y-72185368D01*
X137779255Y-72185368D01*
X137949522Y-72125789D01*
X138102262Y-72029816D01*
X138229816Y-71902262D01*
X138325789Y-71749522D01*
X138385368Y-71579255D01*
X138385876Y-71574750D01*
X138405565Y-71400003D01*
X138405565Y-71399996D01*
X138385369Y-71220750D01*
X138385368Y-71220745D01*
X138325789Y-71050478D01*
X138229816Y-70897738D01*
X138102262Y-70770184D01*
X138070897Y-70750476D01*
X137949523Y-70674211D01*
X137779254Y-70614631D01*
X137779249Y-70614630D01*
X137600004Y-70594435D01*
X137599996Y-70594435D01*
X137420750Y-70614630D01*
X137420745Y-70614631D01*
X137250476Y-70674211D01*
X137097737Y-70770184D01*
X136970184Y-70897737D01*
X136874211Y-71050476D01*
X136814631Y-71220745D01*
X136814630Y-71220750D01*
X136794435Y-71399996D01*
X129643116Y-71399996D01*
X129625789Y-71350478D01*
X129529816Y-71197738D01*
X129402262Y-71070184D01*
X129292580Y-71001266D01*
X129249523Y-70974211D01*
X129079254Y-70914631D01*
X129079249Y-70914630D01*
X128900004Y-70894435D01*
X128899996Y-70894435D01*
X128720750Y-70914630D01*
X128720745Y-70914631D01*
X128550476Y-70974211D01*
X128397737Y-71070184D01*
X128270184Y-71197737D01*
X128174211Y-71350476D01*
X128114631Y-71520745D01*
X128114630Y-71520750D01*
X128094435Y-71699996D01*
X127778110Y-71699996D01*
X127785368Y-71679255D01*
X127785529Y-71677830D01*
X127805565Y-71500003D01*
X127805565Y-71499996D01*
X127785369Y-71320750D01*
X127785368Y-71320745D01*
X127725788Y-71150475D01*
X127672691Y-71065973D01*
X127653690Y-70998736D01*
X127672691Y-70934027D01*
X127725788Y-70849524D01*
X127725789Y-70849522D01*
X127785368Y-70679255D01*
X127785369Y-70679249D01*
X127805565Y-70500003D01*
X127805565Y-70499996D01*
X127785369Y-70320750D01*
X127785368Y-70320745D01*
X127751916Y-70225145D01*
X127725789Y-70150478D01*
X127712041Y-70128599D01*
X127680558Y-70078493D01*
X127629816Y-69997738D01*
X127502262Y-69870184D01*
X127469372Y-69849518D01*
X127349523Y-69774211D01*
X127179254Y-69714631D01*
X127179249Y-69714630D01*
X127000004Y-69694435D01*
X126999996Y-69694435D01*
X126820750Y-69714630D01*
X126820745Y-69714631D01*
X126650476Y-69774211D01*
X126497737Y-69870184D01*
X126370184Y-69997737D01*
X126274211Y-70150476D01*
X126214631Y-70320745D01*
X126214630Y-70320750D01*
X126194435Y-70499996D01*
X110832074Y-70499996D01*
X110802262Y-70470184D01*
X110649523Y-70374211D01*
X110479254Y-70314631D01*
X110479249Y-70314630D01*
X110300004Y-70294435D01*
X110299996Y-70294435D01*
X110120750Y-70314630D01*
X110120745Y-70314631D01*
X109950476Y-70374211D01*
X109797737Y-70470184D01*
X109670184Y-70597737D01*
X109574211Y-70750476D01*
X109514631Y-70920745D01*
X109514630Y-70920750D01*
X109494435Y-71099996D01*
X105346910Y-71099996D01*
X105355659Y-71000000D01*
X105335063Y-70764592D01*
X105273903Y-70536337D01*
X105174035Y-70322171D01*
X105168757Y-70314632D01*
X105038494Y-70128597D01*
X104871402Y-69961506D01*
X104871396Y-69961501D01*
X104685842Y-69831575D01*
X104642217Y-69776998D01*
X104635023Y-69707500D01*
X104666546Y-69645145D01*
X104685842Y-69628425D01*
X104708026Y-69612891D01*
X104871401Y-69498495D01*
X105038495Y-69331401D01*
X105174035Y-69137830D01*
X105191677Y-69099996D01*
X117294435Y-69099996D01*
X117294435Y-69100003D01*
X117314630Y-69279249D01*
X117314631Y-69279254D01*
X117374211Y-69449523D01*
X117424662Y-69529815D01*
X117470184Y-69602262D01*
X117597738Y-69729816D01*
X117668392Y-69774211D01*
X117733076Y-69814855D01*
X117750478Y-69825789D01*
X117818306Y-69849523D01*
X117920745Y-69885368D01*
X117920750Y-69885369D01*
X118099996Y-69905565D01*
X118100000Y-69905565D01*
X118100004Y-69905565D01*
X118279249Y-69885369D01*
X118279252Y-69885368D01*
X118279255Y-69885368D01*
X118449522Y-69825789D01*
X118602262Y-69729816D01*
X118729816Y-69602262D01*
X118825789Y-69449522D01*
X118885368Y-69279255D01*
X118893176Y-69209949D01*
X118920241Y-69145540D01*
X118977836Y-69105984D01*
X119047673Y-69103845D01*
X119104077Y-69136155D01*
X119197738Y-69229816D01*
X119270289Y-69275403D01*
X119342450Y-69320745D01*
X119350478Y-69325789D01*
X119520745Y-69385368D01*
X119520750Y-69385369D01*
X119699996Y-69405565D01*
X119700000Y-69405565D01*
X119700004Y-69405565D01*
X119879249Y-69385369D01*
X119879252Y-69385368D01*
X119879255Y-69385368D01*
X120049522Y-69325789D01*
X120202262Y-69229816D01*
X120329816Y-69102262D01*
X120425789Y-68949522D01*
X120485368Y-68779255D01*
X120485369Y-68779249D01*
X120505565Y-68600003D01*
X120505565Y-68599996D01*
X120494298Y-68499996D01*
X126194435Y-68499996D01*
X126194435Y-68500003D01*
X126214630Y-68679249D01*
X126214631Y-68679254D01*
X126274211Y-68849523D01*
X126324662Y-68929815D01*
X126370184Y-69002262D01*
X126497738Y-69129816D01*
X126650478Y-69225789D01*
X126718306Y-69249523D01*
X126820745Y-69285368D01*
X126820750Y-69285369D01*
X126999996Y-69305565D01*
X127000000Y-69305565D01*
X127000004Y-69305565D01*
X127179249Y-69285369D01*
X127179252Y-69285368D01*
X127179255Y-69285368D01*
X127349522Y-69225789D01*
X127502262Y-69129816D01*
X127629816Y-69002262D01*
X127694074Y-68899996D01*
X132094435Y-68899996D01*
X132094435Y-68900003D01*
X132114630Y-69079249D01*
X132114631Y-69079254D01*
X132174211Y-69249523D01*
X132259569Y-69385368D01*
X132270184Y-69402262D01*
X132397738Y-69529816D01*
X132550478Y-69625789D01*
X132703258Y-69679249D01*
X132720745Y-69685368D01*
X132720750Y-69685369D01*
X132792712Y-69693476D01*
X132847391Y-69699637D01*
X132911805Y-69726703D01*
X132950549Y-69781902D01*
X132974209Y-69849518D01*
X132974210Y-69849522D01*
X133044575Y-69961506D01*
X133070184Y-70002262D01*
X133197738Y-70129816D01*
X133288080Y-70186582D01*
X133331771Y-70214035D01*
X133350478Y-70225789D01*
X133456827Y-70263002D01*
X133520745Y-70285368D01*
X133520750Y-70285369D01*
X133699996Y-70305565D01*
X133700000Y-70305565D01*
X133700004Y-70305565D01*
X133879249Y-70285369D01*
X133879252Y-70285368D01*
X133879255Y-70285368D01*
X134049522Y-70225789D01*
X134202262Y-70129816D01*
X134329816Y-70002262D01*
X134425789Y-69849522D01*
X134485368Y-69679255D01*
X134485369Y-69679249D01*
X134505565Y-69500003D01*
X134505565Y-69499996D01*
X134485369Y-69320750D01*
X134485368Y-69320745D01*
X134460446Y-69249522D01*
X134425789Y-69150478D01*
X134329816Y-68997738D01*
X134202262Y-68870184D01*
X134169379Y-68849522D01*
X134049523Y-68774211D01*
X133879254Y-68714631D01*
X133879250Y-68714630D01*
X133752607Y-68700361D01*
X133688193Y-68673294D01*
X133649450Y-68618098D01*
X133643117Y-68600000D01*
X133636114Y-68579988D01*
X133632552Y-68510212D01*
X133648160Y-68473066D01*
X133725789Y-68349522D01*
X133743119Y-68299996D01*
X146194435Y-68299996D01*
X146194435Y-68300003D01*
X146214630Y-68479249D01*
X146214631Y-68479254D01*
X146274211Y-68649523D01*
X146337646Y-68750478D01*
X146370184Y-68802262D01*
X146497738Y-68929816D01*
X146588080Y-68986582D01*
X146605833Y-68997737D01*
X146650478Y-69025789D01*
X146691091Y-69040000D01*
X146820745Y-69085368D01*
X146820750Y-69085369D01*
X146999996Y-69105565D01*
X147000000Y-69105565D01*
X147000004Y-69105565D01*
X147179249Y-69085369D01*
X147179252Y-69085368D01*
X147179255Y-69085368D01*
X147349522Y-69025789D01*
X147502262Y-68929816D01*
X147629816Y-68802262D01*
X147725789Y-68649522D01*
X147785368Y-68479255D01*
X147786390Y-68470184D01*
X147805565Y-68300003D01*
X147805565Y-68299996D01*
X147785369Y-68120750D01*
X147785368Y-68120745D01*
X147725789Y-67950478D01*
X147725188Y-67949522D01*
X147640431Y-67814632D01*
X147629816Y-67797738D01*
X147502262Y-67670184D01*
X147390570Y-67600003D01*
X147349523Y-67574211D01*
X147179254Y-67514631D01*
X147179249Y-67514630D01*
X147000004Y-67494435D01*
X146999996Y-67494435D01*
X146820750Y-67514630D01*
X146820745Y-67514631D01*
X146650476Y-67574211D01*
X146497737Y-67670184D01*
X146370184Y-67797737D01*
X146274211Y-67950476D01*
X146214631Y-68120745D01*
X146214630Y-68120750D01*
X146194435Y-68299996D01*
X133743119Y-68299996D01*
X133785368Y-68179255D01*
X133786569Y-68168597D01*
X133805565Y-68000003D01*
X133805565Y-67999996D01*
X133785369Y-67820750D01*
X133785368Y-67820745D01*
X133783228Y-67814630D01*
X133725789Y-67650478D01*
X133629816Y-67497738D01*
X133629511Y-67497433D01*
X133629377Y-67497188D01*
X133625475Y-67492295D01*
X133626332Y-67491611D01*
X133596026Y-67436110D01*
X133601010Y-67366418D01*
X133642882Y-67310485D01*
X133708346Y-67286068D01*
X133731076Y-67286532D01*
X133899997Y-67305565D01*
X133900000Y-67305565D01*
X133900004Y-67305565D01*
X134079249Y-67285369D01*
X134079252Y-67285368D01*
X134079255Y-67285368D01*
X134249522Y-67225789D01*
X134402262Y-67129816D01*
X134529816Y-67002262D01*
X134625789Y-66849522D01*
X134685368Y-66679255D01*
X134694542Y-66597834D01*
X134705565Y-66500003D01*
X134705565Y-66499996D01*
X134685369Y-66320750D01*
X134685368Y-66320745D01*
X134625788Y-66150476D01*
X134529815Y-65997737D01*
X134402262Y-65870184D01*
X134249523Y-65774211D01*
X134079254Y-65714631D01*
X134079249Y-65714630D01*
X133949362Y-65699996D01*
X144494435Y-65699996D01*
X144494435Y-65700003D01*
X144514630Y-65879249D01*
X144514631Y-65879254D01*
X144574211Y-66049523D01*
X144640747Y-66155413D01*
X144670184Y-66202262D01*
X144797738Y-66329816D01*
X144950478Y-66425789D01*
X145120745Y-66485368D01*
X145120750Y-66485369D01*
X145299996Y-66505565D01*
X145300000Y-66505565D01*
X145300004Y-66505565D01*
X145349404Y-66499999D01*
X154144341Y-66499999D01*
X154144341Y-66500000D01*
X154164936Y-66735403D01*
X154164938Y-66735413D01*
X154226094Y-66963655D01*
X154226096Y-66963659D01*
X154226097Y-66963663D01*
X154303575Y-67129815D01*
X154325965Y-67177830D01*
X154325967Y-67177834D01*
X154461501Y-67371395D01*
X154461506Y-67371402D01*
X154628597Y-67538493D01*
X154628603Y-67538498D01*
X154814158Y-67668425D01*
X154857783Y-67723002D01*
X154864977Y-67792500D01*
X154833454Y-67854855D01*
X154814158Y-67871575D01*
X154628597Y-68001505D01*
X154461505Y-68168597D01*
X154325965Y-68362169D01*
X154325964Y-68362171D01*
X154226098Y-68576335D01*
X154226094Y-68576344D01*
X154164938Y-68804586D01*
X154164936Y-68804596D01*
X154144341Y-69039999D01*
X154144341Y-69040000D01*
X154164936Y-69275403D01*
X154164938Y-69275413D01*
X154226094Y-69503655D01*
X154226096Y-69503659D01*
X154226097Y-69503663D01*
X154307974Y-69679249D01*
X154325965Y-69717830D01*
X154325967Y-69717834D01*
X154432645Y-69870184D01*
X154443276Y-69885368D01*
X154461501Y-69911395D01*
X154461506Y-69911402D01*
X154628597Y-70078493D01*
X154628603Y-70078498D01*
X154814158Y-70208425D01*
X154857783Y-70263002D01*
X154864977Y-70332500D01*
X154833454Y-70394855D01*
X154814158Y-70411575D01*
X154628597Y-70541505D01*
X154461505Y-70708597D01*
X154325965Y-70902169D01*
X154325964Y-70902171D01*
X154226098Y-71116335D01*
X154226094Y-71116344D01*
X154164938Y-71344586D01*
X154164936Y-71344596D01*
X154144341Y-71579999D01*
X154144341Y-71580000D01*
X154164936Y-71815403D01*
X154164938Y-71815413D01*
X154226094Y-72043655D01*
X154226096Y-72043659D01*
X154226097Y-72043663D01*
X154305821Y-72214631D01*
X154325965Y-72257830D01*
X154325967Y-72257834D01*
X154404636Y-72370184D01*
X154461505Y-72451401D01*
X154628599Y-72618495D01*
X154725384Y-72686265D01*
X154822165Y-72754032D01*
X154822167Y-72754033D01*
X154822170Y-72754035D01*
X155036337Y-72853903D01*
X155264592Y-72915063D01*
X155433216Y-72929816D01*
X155499999Y-72935659D01*
X155500000Y-72935659D01*
X155500001Y-72935659D01*
X155566784Y-72929816D01*
X155735408Y-72915063D01*
X155963663Y-72853903D01*
X156177830Y-72754035D01*
X156371401Y-72618495D01*
X156538495Y-72451401D01*
X156674035Y-72257830D01*
X156773903Y-72043663D01*
X156835063Y-71815408D01*
X156855659Y-71580000D01*
X156835063Y-71344592D01*
X156773903Y-71116337D01*
X156674035Y-70902171D01*
X156670931Y-70897737D01*
X156538494Y-70708597D01*
X156371402Y-70541506D01*
X156371396Y-70541501D01*
X156185842Y-70411575D01*
X156142217Y-70356998D01*
X156135023Y-70287500D01*
X156166546Y-70225145D01*
X156185842Y-70208425D01*
X156208026Y-70192891D01*
X156371401Y-70078495D01*
X156538495Y-69911401D01*
X156674035Y-69717830D01*
X156773903Y-69503663D01*
X156835063Y-69275408D01*
X156855659Y-69040000D01*
X156835063Y-68804592D01*
X156773903Y-68576337D01*
X156674035Y-68362171D01*
X156665179Y-68349522D01*
X156538494Y-68168597D01*
X156371402Y-68001506D01*
X156371396Y-68001501D01*
X156185842Y-67871575D01*
X156142217Y-67816998D01*
X156135023Y-67747500D01*
X156166546Y-67685145D01*
X156185842Y-67668425D01*
X156211476Y-67650476D01*
X156371401Y-67538495D01*
X156538495Y-67371401D01*
X156674035Y-67177830D01*
X156773903Y-66963663D01*
X156835063Y-66735408D01*
X156855659Y-66500000D01*
X156835063Y-66264592D01*
X156773903Y-66036337D01*
X156674035Y-65822171D01*
X156640454Y-65774211D01*
X156538494Y-65628597D01*
X156371402Y-65461506D01*
X156371401Y-65461505D01*
X156185405Y-65331269D01*
X156141781Y-65276692D01*
X156134588Y-65207193D01*
X156166110Y-65144839D01*
X156185405Y-65128119D01*
X156371082Y-64998105D01*
X156538105Y-64831082D01*
X156673600Y-64637578D01*
X156773429Y-64423492D01*
X156773432Y-64423486D01*
X156830636Y-64210000D01*
X155933012Y-64210000D01*
X155965925Y-64152993D01*
X156000000Y-64025826D01*
X156000000Y-63894174D01*
X155965925Y-63767007D01*
X155933012Y-63710000D01*
X156830636Y-63710000D01*
X156830635Y-63709999D01*
X156773432Y-63496513D01*
X156773429Y-63496507D01*
X156673600Y-63282422D01*
X156673599Y-63282420D01*
X156538113Y-63088926D01*
X156538108Y-63088920D01*
X156416053Y-62966865D01*
X156382568Y-62905542D01*
X156387552Y-62835850D01*
X156429424Y-62779917D01*
X156460400Y-62763002D01*
X156590090Y-62714632D01*
X156592326Y-62713798D01*
X156592326Y-62713797D01*
X156592331Y-62713796D01*
X156707546Y-62627546D01*
X156793796Y-62512331D01*
X156844091Y-62377483D01*
X156850500Y-62317873D01*
X156850499Y-60522128D01*
X156844091Y-60462517D01*
X156793796Y-60327669D01*
X156793795Y-60327668D01*
X156793793Y-60327664D01*
X156707547Y-60212455D01*
X156707544Y-60212452D01*
X156592335Y-60126206D01*
X156592328Y-60126202D01*
X156457482Y-60075908D01*
X156457483Y-60075908D01*
X156397883Y-60069501D01*
X156397881Y-60069500D01*
X156397873Y-60069500D01*
X156397864Y-60069500D01*
X154602129Y-60069500D01*
X154602123Y-60069501D01*
X154542516Y-60075908D01*
X154407671Y-60126202D01*
X154407664Y-60126206D01*
X154292455Y-60212452D01*
X154292452Y-60212455D01*
X154206206Y-60327664D01*
X154206202Y-60327671D01*
X154155908Y-60462517D01*
X154149501Y-60522116D01*
X154149501Y-60522123D01*
X154149500Y-60522135D01*
X154149500Y-62317870D01*
X154149501Y-62317876D01*
X154155908Y-62377483D01*
X154206202Y-62512328D01*
X154206206Y-62512335D01*
X154292452Y-62627544D01*
X154292455Y-62627547D01*
X154407664Y-62713793D01*
X154407671Y-62713797D01*
X154409910Y-62714632D01*
X154539598Y-62763002D01*
X154595531Y-62804873D01*
X154619949Y-62870337D01*
X154605098Y-62938610D01*
X154583947Y-62966865D01*
X154461886Y-63088926D01*
X154326400Y-63282420D01*
X154326399Y-63282422D01*
X154226570Y-63496507D01*
X154226567Y-63496513D01*
X154169364Y-63709999D01*
X154169364Y-63710000D01*
X155066988Y-63710000D01*
X155034075Y-63767007D01*
X155000000Y-63894174D01*
X155000000Y-64025826D01*
X155034075Y-64152993D01*
X155066988Y-64210000D01*
X154169364Y-64210000D01*
X154226567Y-64423486D01*
X154226570Y-64423492D01*
X154326399Y-64637578D01*
X154461894Y-64831082D01*
X154628917Y-64998105D01*
X154814595Y-65128119D01*
X154858219Y-65182696D01*
X154865412Y-65252195D01*
X154833890Y-65314549D01*
X154814595Y-65331269D01*
X154628594Y-65461508D01*
X154461505Y-65628597D01*
X154325965Y-65822169D01*
X154325964Y-65822171D01*
X154226098Y-66036335D01*
X154226094Y-66036344D01*
X154164938Y-66264586D01*
X154164936Y-66264596D01*
X154144341Y-66499999D01*
X145349404Y-66499999D01*
X145479249Y-66485369D01*
X145479252Y-66485368D01*
X145479255Y-66485368D01*
X145649522Y-66425789D01*
X145802262Y-66329816D01*
X145929816Y-66202262D01*
X146025789Y-66049522D01*
X146085368Y-65879255D01*
X146097204Y-65774211D01*
X146105565Y-65700003D01*
X146105565Y-65699996D01*
X146085369Y-65520750D01*
X146085368Y-65520745D01*
X146025788Y-65350476D01*
X145979426Y-65276692D01*
X145929816Y-65197738D01*
X145802262Y-65070184D01*
X145738017Y-65029816D01*
X145649523Y-64974211D01*
X145479254Y-64914631D01*
X145479249Y-64914630D01*
X145300004Y-64894435D01*
X145299996Y-64894435D01*
X145120750Y-64914630D01*
X145120745Y-64914631D01*
X144950476Y-64974211D01*
X144797737Y-65070184D01*
X144670184Y-65197737D01*
X144574211Y-65350476D01*
X144514631Y-65520745D01*
X144514630Y-65520750D01*
X144494435Y-65699996D01*
X133949362Y-65699996D01*
X133900004Y-65694435D01*
X133899996Y-65694435D01*
X133720750Y-65714630D01*
X133720745Y-65714631D01*
X133550476Y-65774211D01*
X133397737Y-65870184D01*
X133270184Y-65997737D01*
X133174211Y-66150476D01*
X133114631Y-66320745D01*
X133114630Y-66320750D01*
X133094435Y-66499996D01*
X133094435Y-66500003D01*
X133114630Y-66679249D01*
X133114631Y-66679254D01*
X133174211Y-66849523D01*
X133270184Y-67002262D01*
X133270488Y-67002566D01*
X133270621Y-67002810D01*
X133274525Y-67007705D01*
X133273667Y-67008388D01*
X133303973Y-67063889D01*
X133298989Y-67133581D01*
X133257117Y-67189514D01*
X133191653Y-67213931D01*
X133168924Y-67213467D01*
X133000004Y-67194435D01*
X132999996Y-67194435D01*
X132820750Y-67214630D01*
X132820745Y-67214631D01*
X132650476Y-67274211D01*
X132497737Y-67370184D01*
X132370184Y-67497737D01*
X132274211Y-67650476D01*
X132214631Y-67820745D01*
X132214630Y-67820750D01*
X132194435Y-67999996D01*
X132194435Y-68000003D01*
X132214630Y-68179249D01*
X132214632Y-68179257D01*
X132263884Y-68320011D01*
X132267445Y-68389789D01*
X132251836Y-68426937D01*
X132174211Y-68550476D01*
X132114631Y-68720745D01*
X132114630Y-68720750D01*
X132094435Y-68899996D01*
X127694074Y-68899996D01*
X127725789Y-68849522D01*
X127785368Y-68679255D01*
X127792259Y-68618098D01*
X127805565Y-68500003D01*
X127805565Y-68499996D01*
X127785369Y-68320750D01*
X127785368Y-68320745D01*
X127772989Y-68285368D01*
X127725789Y-68150478D01*
X127707106Y-68120745D01*
X127686582Y-68088080D01*
X127629816Y-67997738D01*
X127502262Y-67870184D01*
X127469379Y-67849522D01*
X127349523Y-67774211D01*
X127179254Y-67714631D01*
X127179249Y-67714630D01*
X127000004Y-67694435D01*
X126999996Y-67694435D01*
X126820750Y-67714630D01*
X126820745Y-67714631D01*
X126650476Y-67774211D01*
X126497737Y-67870184D01*
X126370184Y-67997737D01*
X126274211Y-68150476D01*
X126214631Y-68320745D01*
X126214630Y-68320750D01*
X126194435Y-68499996D01*
X120494298Y-68499996D01*
X120485369Y-68420750D01*
X120485368Y-68420745D01*
X120480056Y-68405565D01*
X120425789Y-68250478D01*
X120329816Y-68097738D01*
X120202262Y-67970184D01*
X120169379Y-67949522D01*
X120049523Y-67874211D01*
X119879254Y-67814631D01*
X119879249Y-67814630D01*
X119700004Y-67794435D01*
X119699996Y-67794435D01*
X119520750Y-67814630D01*
X119520745Y-67814631D01*
X119350476Y-67874211D01*
X119197737Y-67970184D01*
X119070184Y-68097737D01*
X118974211Y-68250476D01*
X118914631Y-68420745D01*
X118914630Y-68420749D01*
X118906823Y-68490047D01*
X118879757Y-68554460D01*
X118822162Y-68594016D01*
X118752325Y-68596153D01*
X118695922Y-68563844D01*
X118602262Y-68470184D01*
X118449523Y-68374211D01*
X118279254Y-68314631D01*
X118279249Y-68314630D01*
X118100004Y-68294435D01*
X118099996Y-68294435D01*
X117920750Y-68314630D01*
X117920745Y-68314631D01*
X117750476Y-68374211D01*
X117597737Y-68470184D01*
X117470184Y-68597737D01*
X117374211Y-68750476D01*
X117314631Y-68920745D01*
X117314630Y-68920750D01*
X117294435Y-69099996D01*
X105191677Y-69099996D01*
X105273903Y-68923663D01*
X105335063Y-68695408D01*
X105355659Y-68460000D01*
X105335063Y-68224592D01*
X105274885Y-68000003D01*
X105273905Y-67996344D01*
X105273904Y-67996343D01*
X105273903Y-67996337D01*
X105174035Y-67782171D01*
X105171994Y-67779255D01*
X105046476Y-67599996D01*
X105894435Y-67599996D01*
X105894435Y-67600003D01*
X105914630Y-67779249D01*
X105914631Y-67779254D01*
X105974211Y-67949523D01*
X106067341Y-68097737D01*
X106070184Y-68102262D01*
X106197738Y-68229816D01*
X106286148Y-68285368D01*
X106342450Y-68320745D01*
X106350478Y-68325789D01*
X106418309Y-68349524D01*
X106520745Y-68385368D01*
X106520750Y-68385369D01*
X106699996Y-68405565D01*
X106700000Y-68405565D01*
X106700004Y-68405565D01*
X106879249Y-68385369D01*
X106879252Y-68385368D01*
X106879255Y-68385368D01*
X107049522Y-68325789D01*
X107202262Y-68229816D01*
X107329816Y-68102262D01*
X107425789Y-67949522D01*
X107485368Y-67779255D01*
X107485369Y-67779249D01*
X107505565Y-67600003D01*
X107505565Y-67599996D01*
X107494298Y-67499996D01*
X112194435Y-67499996D01*
X112194435Y-67500003D01*
X112214630Y-67679249D01*
X112214631Y-67679254D01*
X112274211Y-67849523D01*
X112337646Y-67950478D01*
X112370184Y-68002262D01*
X112497738Y-68129816D01*
X112650478Y-68225789D01*
X112820745Y-68285368D01*
X112820750Y-68285369D01*
X112999996Y-68305565D01*
X113000000Y-68305565D01*
X113000004Y-68305565D01*
X113179249Y-68285369D01*
X113179252Y-68285368D01*
X113179255Y-68285368D01*
X113349522Y-68225789D01*
X113502262Y-68129816D01*
X113629816Y-68002262D01*
X113725789Y-67849522D01*
X113785368Y-67679255D01*
X113786390Y-67670184D01*
X113805565Y-67500003D01*
X113805565Y-67499996D01*
X113785369Y-67320750D01*
X113785368Y-67320745D01*
X113769085Y-67274211D01*
X113725789Y-67150478D01*
X113690323Y-67094035D01*
X113636508Y-67008388D01*
X113629816Y-66997738D01*
X113502262Y-66870184D01*
X113413852Y-66814632D01*
X113349523Y-66774211D01*
X113179254Y-66714631D01*
X113179249Y-66714630D01*
X113000004Y-66694435D01*
X112999996Y-66694435D01*
X112820750Y-66714630D01*
X112820745Y-66714631D01*
X112650476Y-66774211D01*
X112497737Y-66870184D01*
X112370184Y-66997737D01*
X112274211Y-67150476D01*
X112214631Y-67320745D01*
X112214630Y-67320750D01*
X112194435Y-67499996D01*
X107494298Y-67499996D01*
X107485369Y-67420750D01*
X107485368Y-67420745D01*
X107437998Y-67285369D01*
X107425789Y-67250478D01*
X107403265Y-67214632D01*
X107362955Y-67150478D01*
X107329816Y-67097738D01*
X107202262Y-66970184D01*
X107049523Y-66874211D01*
X106879254Y-66814631D01*
X106879249Y-66814630D01*
X106700004Y-66794435D01*
X106699996Y-66794435D01*
X106520750Y-66814630D01*
X106520745Y-66814631D01*
X106350476Y-66874211D01*
X106197737Y-66970184D01*
X106070184Y-67097737D01*
X105974211Y-67250476D01*
X105914631Y-67420745D01*
X105914630Y-67420750D01*
X105894435Y-67599996D01*
X105046476Y-67599996D01*
X105038494Y-67588597D01*
X104871402Y-67421506D01*
X104871396Y-67421501D01*
X104685842Y-67291575D01*
X104642217Y-67236998D01*
X104635023Y-67167500D01*
X104666546Y-67105145D01*
X104685842Y-67088425D01*
X104800146Y-67008388D01*
X104871401Y-66958495D01*
X105038495Y-66791401D01*
X105174035Y-66597830D01*
X105273903Y-66383663D01*
X105335063Y-66155408D01*
X105355659Y-65920000D01*
X105335063Y-65684592D01*
X105273903Y-65456337D01*
X105174035Y-65242171D01*
X105149544Y-65207193D01*
X105038494Y-65048597D01*
X104871402Y-64881506D01*
X104871401Y-64881505D01*
X104685405Y-64751269D01*
X104641781Y-64696692D01*
X104634588Y-64627193D01*
X104666110Y-64564839D01*
X104685405Y-64548119D01*
X104871082Y-64418105D01*
X105038105Y-64251082D01*
X105143898Y-64099996D01*
X114494435Y-64099996D01*
X114494435Y-64100003D01*
X114514630Y-64279249D01*
X114514631Y-64279254D01*
X114574211Y-64449523D01*
X114655724Y-64579249D01*
X114670184Y-64602262D01*
X114797738Y-64729816D01*
X114950478Y-64825789D01*
X114965605Y-64831082D01*
X115120745Y-64885368D01*
X115120750Y-64885369D01*
X115299996Y-64905565D01*
X115300000Y-64905565D01*
X115300004Y-64905565D01*
X115479249Y-64885369D01*
X115479252Y-64885368D01*
X115479255Y-64885368D01*
X115649522Y-64825789D01*
X115802262Y-64729816D01*
X115929816Y-64602262D01*
X116025789Y-64449522D01*
X116043118Y-64399996D01*
X117494435Y-64399996D01*
X117494435Y-64400003D01*
X117514630Y-64579249D01*
X117514631Y-64579254D01*
X117574211Y-64749523D01*
X117657141Y-64881505D01*
X117670184Y-64902262D01*
X117797738Y-65029816D01*
X117950478Y-65125789D01*
X118003497Y-65144341D01*
X118120745Y-65185368D01*
X118120750Y-65185369D01*
X118299996Y-65205565D01*
X118300000Y-65205565D01*
X118300004Y-65205565D01*
X118479249Y-65185369D01*
X118479252Y-65185368D01*
X118479255Y-65185368D01*
X118649522Y-65125789D01*
X118802262Y-65029816D01*
X118929816Y-64902262D01*
X119025789Y-64749522D01*
X119085368Y-64579255D01*
X119085369Y-64579249D01*
X119105565Y-64400003D01*
X119105565Y-64399996D01*
X119085369Y-64220750D01*
X119085368Y-64220745D01*
X119081608Y-64210000D01*
X119025789Y-64050478D01*
X118929816Y-63897738D01*
X118802262Y-63770184D01*
X118770897Y-63750476D01*
X118649523Y-63674211D01*
X118479254Y-63614631D01*
X118479249Y-63614630D01*
X118300004Y-63594435D01*
X118299996Y-63594435D01*
X118120750Y-63614630D01*
X118120745Y-63614631D01*
X117950476Y-63674211D01*
X117797737Y-63770184D01*
X117670184Y-63897737D01*
X117574211Y-64050476D01*
X117514631Y-64220745D01*
X117514630Y-64220750D01*
X117494435Y-64399996D01*
X116043118Y-64399996D01*
X116049449Y-64381903D01*
X116090168Y-64325128D01*
X116152606Y-64299637D01*
X116232683Y-64290615D01*
X116279249Y-64285369D01*
X116279252Y-64285368D01*
X116279255Y-64285368D01*
X116449522Y-64225789D01*
X116602262Y-64129816D01*
X116729816Y-64002262D01*
X116825789Y-63849522D01*
X116885368Y-63679255D01*
X116885369Y-63679249D01*
X116905565Y-63500003D01*
X116905565Y-63499996D01*
X131194435Y-63499996D01*
X131194435Y-63500003D01*
X131214630Y-63679249D01*
X131214631Y-63679254D01*
X131274211Y-63849523D01*
X131370184Y-64002262D01*
X131497738Y-64129816D01*
X131534624Y-64152993D01*
X131642450Y-64220745D01*
X131650478Y-64225789D01*
X131803258Y-64279249D01*
X131820745Y-64285368D01*
X131820750Y-64285369D01*
X131999996Y-64305565D01*
X132000000Y-64305565D01*
X132000004Y-64305565D01*
X132179249Y-64285369D01*
X132179252Y-64285368D01*
X132179255Y-64285368D01*
X132349522Y-64225789D01*
X132502262Y-64129816D01*
X132532082Y-64099996D01*
X134494435Y-64099996D01*
X134494435Y-64100003D01*
X134514630Y-64279249D01*
X134514631Y-64279254D01*
X134574211Y-64449523D01*
X134655724Y-64579249D01*
X134670184Y-64602262D01*
X134797738Y-64729816D01*
X134950478Y-64825789D01*
X134965605Y-64831082D01*
X135120745Y-64885368D01*
X135120750Y-64885369D01*
X135299996Y-64905565D01*
X135300000Y-64905565D01*
X135300004Y-64905565D01*
X135479249Y-64885369D01*
X135479252Y-64885368D01*
X135479255Y-64885368D01*
X135649522Y-64825789D01*
X135802262Y-64729816D01*
X135929816Y-64602262D01*
X136025789Y-64449522D01*
X136085368Y-64279255D01*
X136086748Y-64267007D01*
X136105565Y-64100003D01*
X136105565Y-64099996D01*
X136085369Y-63920750D01*
X136085368Y-63920745D01*
X136078108Y-63899996D01*
X137794435Y-63899996D01*
X137794435Y-63900003D01*
X137814630Y-64079249D01*
X137814631Y-64079254D01*
X137874211Y-64249523D01*
X137896735Y-64285369D01*
X137970184Y-64402262D01*
X138097738Y-64529816D01*
X138250478Y-64625789D01*
X138308515Y-64646097D01*
X138420745Y-64685368D01*
X138420750Y-64685369D01*
X138599996Y-64705565D01*
X138600000Y-64705565D01*
X138600004Y-64705565D01*
X138779249Y-64685369D01*
X138779252Y-64685368D01*
X138779255Y-64685368D01*
X138949522Y-64625789D01*
X139102262Y-64529816D01*
X139229816Y-64402262D01*
X139325789Y-64249522D01*
X139385368Y-64079255D01*
X139385369Y-64079249D01*
X139405565Y-63900003D01*
X139405565Y-63899996D01*
X139385369Y-63720750D01*
X139385368Y-63720745D01*
X139369085Y-63674211D01*
X139325789Y-63550478D01*
X139229816Y-63397738D01*
X139102262Y-63270184D01*
X138949523Y-63174211D01*
X138779254Y-63114631D01*
X138779249Y-63114630D01*
X138600004Y-63094435D01*
X138599996Y-63094435D01*
X138420750Y-63114630D01*
X138420745Y-63114631D01*
X138250476Y-63174211D01*
X138097737Y-63270184D01*
X137970184Y-63397737D01*
X137874211Y-63550476D01*
X137814631Y-63720745D01*
X137814630Y-63720750D01*
X137794435Y-63899996D01*
X136078108Y-63899996D01*
X136025789Y-63750478D01*
X136007106Y-63720745D01*
X135964535Y-63652993D01*
X135929816Y-63597738D01*
X135802262Y-63470184D01*
X135763497Y-63445826D01*
X135649523Y-63374211D01*
X135479254Y-63314631D01*
X135479249Y-63314630D01*
X135300004Y-63294435D01*
X135299996Y-63294435D01*
X135120750Y-63314630D01*
X135120745Y-63314631D01*
X134950476Y-63374211D01*
X134797737Y-63470184D01*
X134670184Y-63597737D01*
X134574211Y-63750476D01*
X134514631Y-63920745D01*
X134514630Y-63920750D01*
X134494435Y-64099996D01*
X132532082Y-64099996D01*
X132629816Y-64002262D01*
X132725789Y-63849522D01*
X132785368Y-63679255D01*
X132785369Y-63679249D01*
X132805565Y-63500003D01*
X132805565Y-63499996D01*
X132785369Y-63320750D01*
X132785368Y-63320745D01*
X132771958Y-63282422D01*
X132725789Y-63150478D01*
X132703265Y-63114632D01*
X132629815Y-62997737D01*
X132502262Y-62870184D01*
X132349523Y-62774211D01*
X132179254Y-62714631D01*
X132179249Y-62714630D01*
X132000004Y-62694435D01*
X131999996Y-62694435D01*
X131820750Y-62714630D01*
X131820745Y-62714631D01*
X131650476Y-62774211D01*
X131497737Y-62870184D01*
X131370184Y-62997737D01*
X131274211Y-63150476D01*
X131214631Y-63320745D01*
X131214630Y-63320750D01*
X131194435Y-63499996D01*
X116905565Y-63499996D01*
X116885369Y-63320750D01*
X116885368Y-63320745D01*
X116871958Y-63282422D01*
X116825789Y-63150478D01*
X116803265Y-63114632D01*
X116729815Y-62997737D01*
X116602262Y-62870184D01*
X116449523Y-62774211D01*
X116279254Y-62714631D01*
X116279249Y-62714630D01*
X116100004Y-62694435D01*
X116099996Y-62694435D01*
X115920750Y-62714630D01*
X115920745Y-62714631D01*
X115750476Y-62774211D01*
X115597737Y-62870184D01*
X115470184Y-62997737D01*
X115374209Y-63150480D01*
X115350549Y-63218097D01*
X115309828Y-63274873D01*
X115247391Y-63300362D01*
X115120750Y-63314630D01*
X115120745Y-63314631D01*
X114950476Y-63374211D01*
X114797737Y-63470184D01*
X114670184Y-63597737D01*
X114574211Y-63750476D01*
X114514631Y-63920745D01*
X114514630Y-63920750D01*
X114494435Y-64099996D01*
X105143898Y-64099996D01*
X105173600Y-64057578D01*
X105273429Y-63843492D01*
X105273432Y-63843486D01*
X105330636Y-63630000D01*
X104433012Y-63630000D01*
X104465925Y-63572993D01*
X104500000Y-63445826D01*
X104500000Y-63314174D01*
X104465925Y-63187007D01*
X104433012Y-63130000D01*
X105330636Y-63130000D01*
X105330635Y-63129999D01*
X105273432Y-62916513D01*
X105273429Y-62916507D01*
X105173600Y-62702422D01*
X105173599Y-62702420D01*
X105038113Y-62508926D01*
X105038108Y-62508920D01*
X104916053Y-62386865D01*
X104882568Y-62325542D01*
X104887552Y-62255850D01*
X104929424Y-62199917D01*
X104960400Y-62183002D01*
X105092331Y-62133796D01*
X105207546Y-62047546D01*
X105243142Y-61999996D01*
X107194435Y-61999996D01*
X107194435Y-62000003D01*
X107214630Y-62179249D01*
X107214631Y-62179254D01*
X107274211Y-62349523D01*
X107309425Y-62405565D01*
X107370184Y-62502262D01*
X107497738Y-62629816D01*
X107586148Y-62685368D01*
X107632721Y-62714632D01*
X107650478Y-62725789D01*
X107756827Y-62763002D01*
X107820745Y-62785368D01*
X107820750Y-62785369D01*
X107999996Y-62805565D01*
X108000000Y-62805565D01*
X108000004Y-62805565D01*
X108179249Y-62785369D01*
X108179252Y-62785368D01*
X108179255Y-62785368D01*
X108349522Y-62725789D01*
X108502262Y-62629816D01*
X108629816Y-62502262D01*
X108725789Y-62349522D01*
X108785368Y-62179255D01*
X108790490Y-62133796D01*
X108805565Y-62000003D01*
X108805565Y-61999996D01*
X108785369Y-61820750D01*
X108785368Y-61820745D01*
X108725788Y-61650476D01*
X108694069Y-61599996D01*
X142194435Y-61599996D01*
X142194435Y-61600003D01*
X142214630Y-61779249D01*
X142214631Y-61779254D01*
X142274211Y-61949523D01*
X142335804Y-62047547D01*
X142370184Y-62102262D01*
X142497738Y-62229816D01*
X142539171Y-62255850D01*
X142650084Y-62325542D01*
X142650478Y-62325789D01*
X142718306Y-62349523D01*
X142820745Y-62385368D01*
X142820750Y-62385369D01*
X142999996Y-62405565D01*
X143000000Y-62405565D01*
X143000004Y-62405565D01*
X143179249Y-62385369D01*
X143179252Y-62385368D01*
X143179255Y-62385368D01*
X143349522Y-62325789D01*
X143502262Y-62229816D01*
X143629816Y-62102262D01*
X143725789Y-61949522D01*
X143743119Y-61899996D01*
X151094435Y-61899996D01*
X151094435Y-61900003D01*
X151114630Y-62079249D01*
X151114631Y-62079254D01*
X151174211Y-62249523D01*
X151254614Y-62377482D01*
X151270184Y-62402262D01*
X151397738Y-62529816D01*
X151550478Y-62625789D01*
X151561984Y-62629815D01*
X151720745Y-62685368D01*
X151720750Y-62685369D01*
X151899996Y-62705565D01*
X151900000Y-62705565D01*
X151900004Y-62705565D01*
X152079249Y-62685369D01*
X152079252Y-62685368D01*
X152079255Y-62685368D01*
X152249522Y-62625789D01*
X152402262Y-62529816D01*
X152529816Y-62402262D01*
X152625789Y-62249522D01*
X152685368Y-62079255D01*
X152688941Y-62047544D01*
X152705565Y-61900003D01*
X152705565Y-61899996D01*
X152685369Y-61720750D01*
X152685368Y-61720745D01*
X152625789Y-61550478D01*
X152529816Y-61397738D01*
X152402262Y-61270184D01*
X152313852Y-61214632D01*
X152249523Y-61174211D01*
X152079254Y-61114631D01*
X152079249Y-61114630D01*
X151900004Y-61094435D01*
X151899996Y-61094435D01*
X151720750Y-61114630D01*
X151720745Y-61114631D01*
X151550476Y-61174211D01*
X151397737Y-61270184D01*
X151270184Y-61397737D01*
X151174211Y-61550476D01*
X151114631Y-61720745D01*
X151114630Y-61720750D01*
X151094435Y-61899996D01*
X143743119Y-61899996D01*
X143785368Y-61779255D01*
X143785369Y-61779249D01*
X143805565Y-61600003D01*
X143805565Y-61599996D01*
X143785369Y-61420750D01*
X143785368Y-61420745D01*
X143725789Y-61250478D01*
X143703265Y-61214632D01*
X143640431Y-61114632D01*
X143629816Y-61097738D01*
X143502262Y-60970184D01*
X143349523Y-60874211D01*
X143179254Y-60814631D01*
X143179249Y-60814630D01*
X143000004Y-60794435D01*
X142999996Y-60794435D01*
X142820750Y-60814630D01*
X142820745Y-60814631D01*
X142650476Y-60874211D01*
X142497737Y-60970184D01*
X142370184Y-61097737D01*
X142274211Y-61250476D01*
X142214631Y-61420745D01*
X142214630Y-61420750D01*
X142194435Y-61599996D01*
X108694069Y-61599996D01*
X108662955Y-61550478D01*
X108629816Y-61497738D01*
X108502262Y-61370184D01*
X108349523Y-61274211D01*
X108179254Y-61214631D01*
X108179249Y-61214630D01*
X108000004Y-61194435D01*
X107999996Y-61194435D01*
X107820750Y-61214630D01*
X107820745Y-61214631D01*
X107650476Y-61274211D01*
X107497737Y-61370184D01*
X107370184Y-61497737D01*
X107274211Y-61650476D01*
X107214631Y-61820745D01*
X107214630Y-61820750D01*
X107194435Y-61999996D01*
X105243142Y-61999996D01*
X105293796Y-61932331D01*
X105344091Y-61797483D01*
X105350500Y-61737873D01*
X105350499Y-59942128D01*
X105344091Y-59882517D01*
X105293796Y-59747669D01*
X105293795Y-59747668D01*
X105293793Y-59747664D01*
X105207547Y-59632455D01*
X105207544Y-59632452D01*
X105092335Y-59546206D01*
X105092328Y-59546202D01*
X104957482Y-59495908D01*
X104957483Y-59495908D01*
X104897883Y-59489501D01*
X104897881Y-59489500D01*
X104897873Y-59489500D01*
X104897864Y-59489500D01*
X103102129Y-59489500D01*
X103102123Y-59489501D01*
X103042516Y-59495908D01*
X102907671Y-59546202D01*
X102907664Y-59546206D01*
X102792455Y-59632452D01*
X102792452Y-59632455D01*
X102706206Y-59747664D01*
X102706202Y-59747671D01*
X102655908Y-59882517D01*
X102649501Y-59942116D01*
X102649501Y-59942123D01*
X102649500Y-59942135D01*
X102649500Y-61737870D01*
X102649501Y-61737876D01*
X102655908Y-61797483D01*
X102706202Y-61932328D01*
X102706206Y-61932335D01*
X102792452Y-62047544D01*
X102792455Y-62047547D01*
X102907664Y-62133793D01*
X102907671Y-62133797D01*
X102907674Y-62133798D01*
X103039598Y-62183002D01*
X103095531Y-62224873D01*
X103119949Y-62290337D01*
X103105098Y-62358610D01*
X103083947Y-62386865D01*
X102961886Y-62508926D01*
X102826400Y-62702420D01*
X102826399Y-62702422D01*
X102726570Y-62916507D01*
X102726567Y-62916513D01*
X102669364Y-63129999D01*
X102669364Y-63130000D01*
X103566988Y-63130000D01*
X103534075Y-63187007D01*
X103500000Y-63314174D01*
X103500000Y-63445826D01*
X103534075Y-63572993D01*
X103566988Y-63630000D01*
X102669364Y-63630000D01*
X102726567Y-63843486D01*
X102726570Y-63843492D01*
X102826399Y-64057578D01*
X102961894Y-64251082D01*
X103128917Y-64418105D01*
X103314595Y-64548119D01*
X103358219Y-64602696D01*
X103365412Y-64672195D01*
X103333890Y-64734549D01*
X103314595Y-64751269D01*
X103128594Y-64881508D01*
X102961505Y-65048597D01*
X102825965Y-65242169D01*
X102825964Y-65242171D01*
X102726098Y-65456335D01*
X102726094Y-65456344D01*
X102664938Y-65684586D01*
X102664936Y-65684596D01*
X102644341Y-65919999D01*
X100000000Y-65919999D01*
X100000000Y-57799996D01*
X116094435Y-57799996D01*
X116094435Y-57800003D01*
X116114630Y-57979249D01*
X116114631Y-57979254D01*
X116174211Y-58149523D01*
X116270184Y-58302262D01*
X116397738Y-58429816D01*
X116550478Y-58525789D01*
X116720745Y-58585368D01*
X116720750Y-58585369D01*
X116899996Y-58605565D01*
X116900000Y-58605565D01*
X116900004Y-58605565D01*
X117079249Y-58585369D01*
X117079252Y-58585368D01*
X117079255Y-58585368D01*
X117249522Y-58525789D01*
X117402262Y-58429816D01*
X117429819Y-58402259D01*
X117491142Y-58368774D01*
X117560834Y-58373758D01*
X117605181Y-58402259D01*
X117632738Y-58429816D01*
X117785478Y-58525789D01*
X117955745Y-58585368D01*
X117955750Y-58585369D01*
X118134996Y-58605565D01*
X118135000Y-58605565D01*
X118135004Y-58605565D01*
X118314249Y-58585369D01*
X118314252Y-58585368D01*
X118314255Y-58585368D01*
X118484522Y-58525789D01*
X118637262Y-58429816D01*
X118764816Y-58302262D01*
X118860789Y-58149522D01*
X118920368Y-57979255D01*
X118940565Y-57800000D01*
X118940565Y-57799996D01*
X143294435Y-57799996D01*
X143294435Y-57800003D01*
X143314630Y-57979249D01*
X143314631Y-57979254D01*
X143374211Y-58149523D01*
X143470184Y-58302262D01*
X143597738Y-58429816D01*
X143750478Y-58525789D01*
X143920745Y-58585368D01*
X143920750Y-58585369D01*
X144099996Y-58605565D01*
X144100000Y-58605565D01*
X144100004Y-58605565D01*
X144279249Y-58585369D01*
X144279252Y-58585368D01*
X144279255Y-58585368D01*
X144449522Y-58525789D01*
X144602262Y-58429816D01*
X144729816Y-58302262D01*
X144825789Y-58149522D01*
X144885368Y-57979255D01*
X144905565Y-57800000D01*
X144885368Y-57620745D01*
X144825789Y-57450478D01*
X144729816Y-57297738D01*
X144602262Y-57170184D01*
X144449523Y-57074211D01*
X144279254Y-57014631D01*
X144279249Y-57014630D01*
X144100004Y-56994435D01*
X144099996Y-56994435D01*
X143920750Y-57014630D01*
X143920745Y-57014631D01*
X143750476Y-57074211D01*
X143597737Y-57170184D01*
X143470184Y-57297737D01*
X143374211Y-57450476D01*
X143314631Y-57620745D01*
X143314630Y-57620750D01*
X143294435Y-57799996D01*
X118940565Y-57799996D01*
X118920368Y-57620745D01*
X118860789Y-57450478D01*
X118764816Y-57297738D01*
X118637262Y-57170184D01*
X118484523Y-57074211D01*
X118314254Y-57014631D01*
X118314249Y-57014630D01*
X118135004Y-56994435D01*
X118134996Y-56994435D01*
X117955750Y-57014630D01*
X117955745Y-57014631D01*
X117785476Y-57074211D01*
X117632737Y-57170184D01*
X117605181Y-57197741D01*
X117543858Y-57231226D01*
X117474166Y-57226242D01*
X117429819Y-57197741D01*
X117402262Y-57170184D01*
X117249523Y-57074211D01*
X117079254Y-57014631D01*
X117079249Y-57014630D01*
X116900004Y-56994435D01*
X116899996Y-56994435D01*
X116720750Y-57014630D01*
X116720745Y-57014631D01*
X116550476Y-57074211D01*
X116397737Y-57170184D01*
X116270184Y-57297737D01*
X116174211Y-57450476D01*
X116114631Y-57620745D01*
X116114630Y-57620750D01*
X116094435Y-57799996D01*
X100000000Y-57799996D01*
X100000000Y-48690058D01*
X100019685Y-48623019D01*
X100072489Y-48577264D01*
X100141647Y-48567320D01*
X100205203Y-48596345D01*
X100242977Y-48655123D01*
X100246876Y-48673405D01*
X100267181Y-48823306D01*
X100271885Y-48858027D01*
X100367830Y-49278391D01*
X100501073Y-49688472D01*
X100501076Y-49688480D01*
X100670533Y-50084947D01*
X100670537Y-50084955D01*
X100670539Y-50084958D01*
X100874863Y-50464655D01*
X100874867Y-50464661D01*
X100874867Y-50464662D01*
X101112394Y-50824501D01*
X101112404Y-50824514D01*
X101381225Y-51161607D01*
X101381237Y-51161620D01*
X101676255Y-51470184D01*
X101679210Y-51473274D01*
X102003920Y-51756965D01*
X102003930Y-51756972D01*
X102003931Y-51756973D01*
X102229350Y-51920750D01*
X102352753Y-52010407D01*
X102722900Y-52231560D01*
X102722903Y-52231561D01*
X102722904Y-52231562D01*
X102722906Y-52231563D01*
X103111372Y-52418639D01*
X103111386Y-52418645D01*
X103515055Y-52570144D01*
X103515059Y-52570145D01*
X103515069Y-52570149D01*
X103930711Y-52684859D01*
X104354964Y-52761850D01*
X104784409Y-52800500D01*
X104784416Y-52800500D01*
X105215584Y-52800500D01*
X105215591Y-52800500D01*
X105221191Y-52799996D01*
X114794435Y-52799996D01*
X114794435Y-52800003D01*
X114814630Y-52979249D01*
X114814631Y-52979254D01*
X114874211Y-53149523D01*
X114970184Y-53302262D01*
X115097738Y-53429816D01*
X115250478Y-53525789D01*
X115420745Y-53585368D01*
X115420750Y-53585369D01*
X115599996Y-53605565D01*
X115600000Y-53605565D01*
X115600004Y-53605565D01*
X115779249Y-53585369D01*
X115779252Y-53585368D01*
X115779255Y-53585368D01*
X115949522Y-53525789D01*
X116102262Y-53429816D01*
X116229816Y-53302262D01*
X116325789Y-53149522D01*
X116385368Y-52979255D01*
X116393671Y-52905565D01*
X116405565Y-52800003D01*
X116405565Y-52799996D01*
X116385369Y-52620750D01*
X116385368Y-52620745D01*
X116325789Y-52450478D01*
X116325188Y-52449522D01*
X116229815Y-52297737D01*
X116102262Y-52170184D01*
X115990559Y-52099996D01*
X120194435Y-52099996D01*
X120194435Y-52100003D01*
X120214630Y-52279249D01*
X120214631Y-52279254D01*
X120274211Y-52449523D01*
X120350003Y-52570144D01*
X120370184Y-52602262D01*
X120497738Y-52729816D01*
X120650478Y-52825789D01*
X120820745Y-52885368D01*
X120820750Y-52885369D01*
X120999996Y-52905565D01*
X121000000Y-52905565D01*
X121000004Y-52905565D01*
X121179249Y-52885369D01*
X121179252Y-52885368D01*
X121179255Y-52885368D01*
X121349522Y-52825789D01*
X121390571Y-52799996D01*
X140794435Y-52799996D01*
X140794435Y-52800003D01*
X140814630Y-52979249D01*
X140814631Y-52979254D01*
X140874211Y-53149523D01*
X140970184Y-53302262D01*
X141097738Y-53429816D01*
X141250478Y-53525789D01*
X141420745Y-53585368D01*
X141420750Y-53585369D01*
X141599996Y-53605565D01*
X141600000Y-53605565D01*
X141600004Y-53605565D01*
X141779249Y-53585369D01*
X141779252Y-53585368D01*
X141779255Y-53585368D01*
X141949522Y-53525789D01*
X142102262Y-53429816D01*
X142229816Y-53302262D01*
X142325789Y-53149522D01*
X142385368Y-52979255D01*
X142393671Y-52905565D01*
X142405565Y-52800003D01*
X142405565Y-52799996D01*
X142385369Y-52620750D01*
X142385368Y-52620745D01*
X142325789Y-52450478D01*
X142325188Y-52449522D01*
X142229815Y-52297737D01*
X142102262Y-52170184D01*
X141949523Y-52074211D01*
X141779254Y-52014631D01*
X141779249Y-52014630D01*
X141649362Y-51999996D01*
X146194435Y-51999996D01*
X146194435Y-52000003D01*
X146214630Y-52179249D01*
X146214631Y-52179254D01*
X146274211Y-52349523D01*
X146337646Y-52450478D01*
X146370184Y-52502262D01*
X146497738Y-52629816D01*
X146650478Y-52725789D01*
X146820745Y-52785368D01*
X146820750Y-52785369D01*
X146999996Y-52805565D01*
X147000000Y-52805565D01*
X147000004Y-52805565D01*
X147179249Y-52785369D01*
X147179252Y-52785368D01*
X147179255Y-52785368D01*
X147349522Y-52725789D01*
X147502262Y-52629816D01*
X147629816Y-52502262D01*
X147725789Y-52349522D01*
X147785368Y-52179255D01*
X147786390Y-52170184D01*
X147805565Y-52000003D01*
X147805565Y-51999996D01*
X147785369Y-51820750D01*
X147785368Y-51820745D01*
X147763049Y-51756960D01*
X147725789Y-51650478D01*
X147629816Y-51497738D01*
X147502262Y-51370184D01*
X147413852Y-51314632D01*
X147349523Y-51274211D01*
X147179254Y-51214631D01*
X147179249Y-51214630D01*
X147000004Y-51194435D01*
X146999996Y-51194435D01*
X146820750Y-51214630D01*
X146820745Y-51214631D01*
X146650476Y-51274211D01*
X146497737Y-51370184D01*
X146370184Y-51497737D01*
X146274211Y-51650476D01*
X146214631Y-51820745D01*
X146214630Y-51820750D01*
X146194435Y-51999996D01*
X141649362Y-51999996D01*
X141600004Y-51994435D01*
X141599996Y-51994435D01*
X141420750Y-52014630D01*
X141420745Y-52014631D01*
X141250476Y-52074211D01*
X141097737Y-52170184D01*
X140970184Y-52297737D01*
X140874211Y-52450476D01*
X140814631Y-52620745D01*
X140814630Y-52620750D01*
X140794435Y-52799996D01*
X121390571Y-52799996D01*
X121502262Y-52729816D01*
X121629816Y-52602262D01*
X121725789Y-52449522D01*
X121785368Y-52279255D01*
X121790742Y-52231560D01*
X121805565Y-52100003D01*
X121805565Y-52099996D01*
X121785369Y-51920750D01*
X121785368Y-51920745D01*
X121737998Y-51785369D01*
X121725789Y-51750478D01*
X121629816Y-51597738D01*
X121502262Y-51470184D01*
X121349523Y-51374211D01*
X121179254Y-51314631D01*
X121179249Y-51314630D01*
X121000004Y-51294435D01*
X120999996Y-51294435D01*
X120820750Y-51314630D01*
X120820745Y-51314631D01*
X120650476Y-51374211D01*
X120497737Y-51470184D01*
X120370184Y-51597737D01*
X120274211Y-51750476D01*
X120214631Y-51920745D01*
X120214630Y-51920750D01*
X120194435Y-52099996D01*
X115990559Y-52099996D01*
X115949523Y-52074211D01*
X115779254Y-52014631D01*
X115779249Y-52014630D01*
X115600004Y-51994435D01*
X115599996Y-51994435D01*
X115420750Y-52014630D01*
X115420745Y-52014631D01*
X115250476Y-52074211D01*
X115097737Y-52170184D01*
X114970184Y-52297737D01*
X114874211Y-52450476D01*
X114814631Y-52620745D01*
X114814630Y-52620750D01*
X114794435Y-52799996D01*
X105221191Y-52799996D01*
X105645036Y-52761850D01*
X106069289Y-52684859D01*
X106484931Y-52570149D01*
X106888619Y-52418643D01*
X107277100Y-52231560D01*
X107647247Y-52010407D01*
X107996080Y-51756965D01*
X108320790Y-51473274D01*
X108618764Y-51161619D01*
X108747654Y-50999996D01*
X115694435Y-50999996D01*
X115694435Y-51000003D01*
X115714630Y-51179249D01*
X115714631Y-51179254D01*
X115774211Y-51349523D01*
X115867341Y-51497737D01*
X115870184Y-51502262D01*
X115997738Y-51629816D01*
X116150478Y-51725789D01*
X116239560Y-51756960D01*
X116320745Y-51785368D01*
X116320750Y-51785369D01*
X116499996Y-51805565D01*
X116500000Y-51805565D01*
X116500004Y-51805565D01*
X116679249Y-51785369D01*
X116679252Y-51785368D01*
X116679255Y-51785368D01*
X116849522Y-51725789D01*
X117002262Y-51629816D01*
X117129816Y-51502262D01*
X117225789Y-51349522D01*
X117285368Y-51179255D01*
X117287355Y-51161619D01*
X117305565Y-51000003D01*
X117305565Y-50999996D01*
X141694435Y-50999996D01*
X141694435Y-51000003D01*
X141714630Y-51179249D01*
X141714631Y-51179254D01*
X141774211Y-51349523D01*
X141867341Y-51497737D01*
X141870184Y-51502262D01*
X141997738Y-51629816D01*
X142150478Y-51725789D01*
X142239560Y-51756960D01*
X142320745Y-51785368D01*
X142320750Y-51785369D01*
X142499996Y-51805565D01*
X142500000Y-51805565D01*
X142500004Y-51805565D01*
X142679249Y-51785369D01*
X142679252Y-51785368D01*
X142679255Y-51785368D01*
X142849522Y-51725789D01*
X143002262Y-51629816D01*
X143129816Y-51502262D01*
X143225789Y-51349522D01*
X143285368Y-51179255D01*
X143287355Y-51161619D01*
X143305565Y-51000003D01*
X143305565Y-50999996D01*
X143285369Y-50820750D01*
X143285368Y-50820745D01*
X143225788Y-50650476D01*
X143129815Y-50497737D01*
X143002262Y-50370184D01*
X142849523Y-50274211D01*
X142679254Y-50214631D01*
X142679249Y-50214630D01*
X142500004Y-50194435D01*
X142499996Y-50194435D01*
X142320750Y-50214630D01*
X142320745Y-50214631D01*
X142150476Y-50274211D01*
X141997737Y-50370184D01*
X141870184Y-50497737D01*
X141774211Y-50650476D01*
X141714631Y-50820745D01*
X141714630Y-50820750D01*
X141694435Y-50999996D01*
X117305565Y-50999996D01*
X117285369Y-50820750D01*
X117285368Y-50820745D01*
X117225788Y-50650476D01*
X117129815Y-50497737D01*
X117002262Y-50370184D01*
X116849523Y-50274211D01*
X116679254Y-50214631D01*
X116679249Y-50214630D01*
X116500004Y-50194435D01*
X116499996Y-50194435D01*
X116320750Y-50214630D01*
X116320745Y-50214631D01*
X116150476Y-50274211D01*
X115997737Y-50370184D01*
X115870184Y-50497737D01*
X115774211Y-50650476D01*
X115714631Y-50820745D01*
X115714630Y-50820750D01*
X115694435Y-50999996D01*
X108747654Y-50999996D01*
X108887601Y-50824507D01*
X109125137Y-50464655D01*
X109329461Y-50084958D01*
X109498926Y-49688475D01*
X109632168Y-49278397D01*
X109728115Y-48858026D01*
X109785994Y-48430747D01*
X109805339Y-48000000D01*
X109785994Y-47569253D01*
X109728115Y-47141974D01*
X109632168Y-46721603D01*
X109498926Y-46311525D01*
X109421260Y-46129816D01*
X109329466Y-45915052D01*
X109329462Y-45915044D01*
X109329461Y-45915042D01*
X109125137Y-45535345D01*
X109101806Y-45500000D01*
X108887605Y-45175498D01*
X108887595Y-45175485D01*
X108846930Y-45124493D01*
X110226464Y-45124493D01*
X110226464Y-45275507D01*
X110253259Y-45375507D01*
X110265551Y-45421380D01*
X110310941Y-45499996D01*
X110341057Y-45552159D01*
X110447841Y-45658943D01*
X110539767Y-45712016D01*
X110578619Y-45734448D01*
X110578620Y-45734448D01*
X110578623Y-45734450D01*
X110724493Y-45773536D01*
X110875504Y-45773536D01*
X110875507Y-45773536D01*
X111021377Y-45734450D01*
X111152159Y-45658943D01*
X111258943Y-45552159D01*
X111289059Y-45499996D01*
X115694435Y-45499996D01*
X115694435Y-45500003D01*
X115714630Y-45679249D01*
X115714631Y-45679254D01*
X115774211Y-45849523D01*
X115815380Y-45915042D01*
X115870184Y-46002262D01*
X115997738Y-46129816D01*
X116150478Y-46225789D01*
X116320745Y-46285368D01*
X116320750Y-46285369D01*
X116499996Y-46305565D01*
X116500000Y-46305565D01*
X116500004Y-46305565D01*
X116679249Y-46285369D01*
X116679252Y-46285368D01*
X116679255Y-46285368D01*
X116849522Y-46225789D01*
X117002262Y-46129816D01*
X117129816Y-46002262D01*
X117225789Y-45849522D01*
X117285368Y-45679255D01*
X117301583Y-45535345D01*
X117305565Y-45500003D01*
X117305565Y-45499996D01*
X117285369Y-45320750D01*
X117285368Y-45320745D01*
X117278109Y-45300000D01*
X117225789Y-45150478D01*
X117212041Y-45128599D01*
X117195413Y-45102135D01*
X125349500Y-45102135D01*
X125349500Y-46897870D01*
X125349501Y-46897876D01*
X125355908Y-46957483D01*
X125406202Y-47092328D01*
X125406206Y-47092335D01*
X125492452Y-47207544D01*
X125492455Y-47207547D01*
X125607664Y-47293793D01*
X125607671Y-47293797D01*
X125742517Y-47344091D01*
X125742516Y-47344091D01*
X125749444Y-47344835D01*
X125802127Y-47350500D01*
X127597872Y-47350499D01*
X127657483Y-47344091D01*
X127792331Y-47293796D01*
X127907546Y-47207546D01*
X127993796Y-47092331D01*
X128042810Y-46960916D01*
X128084681Y-46904984D01*
X128150145Y-46880566D01*
X128218418Y-46895417D01*
X128246673Y-46916569D01*
X128368599Y-47038495D01*
X128465384Y-47106265D01*
X128562165Y-47174032D01*
X128562167Y-47174033D01*
X128562170Y-47174035D01*
X128776337Y-47273903D01*
X129004592Y-47335063D01*
X129181034Y-47350500D01*
X129239999Y-47355659D01*
X129240000Y-47355659D01*
X129240001Y-47355659D01*
X129298966Y-47350500D01*
X129475408Y-47335063D01*
X129703663Y-47273903D01*
X129917830Y-47174035D01*
X130111401Y-47038495D01*
X130278495Y-46871401D01*
X130408425Y-46685842D01*
X130463002Y-46642217D01*
X130532500Y-46635023D01*
X130594855Y-46666546D01*
X130611575Y-46685842D01*
X130741500Y-46871395D01*
X130741505Y-46871401D01*
X130908599Y-47038495D01*
X131005384Y-47106265D01*
X131102165Y-47174032D01*
X131102167Y-47174033D01*
X131102170Y-47174035D01*
X131316337Y-47273903D01*
X131544592Y-47335063D01*
X131721034Y-47350500D01*
X131779999Y-47355659D01*
X131780000Y-47355659D01*
X131780001Y-47355659D01*
X131838966Y-47350500D01*
X132015408Y-47335063D01*
X132243663Y-47273903D01*
X132457830Y-47174035D01*
X132651401Y-47038495D01*
X132818495Y-46871401D01*
X132948425Y-46685842D01*
X133003002Y-46642217D01*
X133072500Y-46635023D01*
X133134855Y-46666546D01*
X133151575Y-46685842D01*
X133281500Y-46871395D01*
X133281505Y-46871401D01*
X133448599Y-47038495D01*
X133545384Y-47106265D01*
X133642165Y-47174032D01*
X133642167Y-47174033D01*
X133642170Y-47174035D01*
X133856337Y-47273903D01*
X134084592Y-47335063D01*
X134261034Y-47350500D01*
X134319999Y-47355659D01*
X134320000Y-47355659D01*
X134320001Y-47355659D01*
X134378966Y-47350500D01*
X134555408Y-47335063D01*
X134783663Y-47273903D01*
X134997830Y-47174035D01*
X135191401Y-47038495D01*
X135358495Y-46871401D01*
X135494035Y-46677830D01*
X135593903Y-46463663D01*
X135655063Y-46235408D01*
X135675659Y-46000000D01*
X135655063Y-45764592D01*
X135608626Y-45591285D01*
X135593905Y-45536344D01*
X135593904Y-45536343D01*
X135593903Y-45536337D01*
X135576957Y-45499996D01*
X141694435Y-45499996D01*
X141694435Y-45500003D01*
X141714630Y-45679249D01*
X141714631Y-45679254D01*
X141774211Y-45849523D01*
X141815380Y-45915042D01*
X141870184Y-46002262D01*
X141997738Y-46129816D01*
X142150478Y-46225789D01*
X142320745Y-46285368D01*
X142320750Y-46285369D01*
X142499996Y-46305565D01*
X142500000Y-46305565D01*
X142500004Y-46305565D01*
X142679249Y-46285369D01*
X142679252Y-46285368D01*
X142679255Y-46285368D01*
X142849522Y-46225789D01*
X143002262Y-46129816D01*
X143129816Y-46002262D01*
X143225789Y-45849522D01*
X143285368Y-45679255D01*
X143301583Y-45535345D01*
X143305565Y-45500003D01*
X143305565Y-45499996D01*
X143285369Y-45320750D01*
X143285368Y-45320745D01*
X143278109Y-45300000D01*
X143251688Y-45224493D01*
X148450464Y-45224493D01*
X148450464Y-45375507D01*
X148462756Y-45421380D01*
X148489551Y-45521380D01*
X148507322Y-45552159D01*
X148565057Y-45652159D01*
X148671841Y-45758943D01*
X148763767Y-45812016D01*
X148802619Y-45834448D01*
X148802620Y-45834448D01*
X148802623Y-45834450D01*
X148948493Y-45873536D01*
X149099504Y-45873536D01*
X149099507Y-45873536D01*
X149245377Y-45834450D01*
X149376159Y-45758943D01*
X149482943Y-45652159D01*
X149558450Y-45521377D01*
X149597536Y-45375507D01*
X149600000Y-45300000D01*
X149597536Y-45224493D01*
X149558450Y-45078623D01*
X149482943Y-44947841D01*
X149376159Y-44841057D01*
X149291973Y-44792452D01*
X149245380Y-44765551D01*
X149245381Y-44765551D01*
X149233419Y-44762345D01*
X149099507Y-44726464D01*
X149099504Y-44726464D01*
X148948496Y-44726464D01*
X148948493Y-44726464D01*
X148814580Y-44762345D01*
X148802619Y-44765551D01*
X148671844Y-44841055D01*
X148671838Y-44841059D01*
X148565059Y-44947838D01*
X148565055Y-44947844D01*
X148489551Y-45078619D01*
X148489550Y-45078623D01*
X148450464Y-45224493D01*
X143251688Y-45224493D01*
X143225789Y-45150478D01*
X143212041Y-45128599D01*
X143175258Y-45070058D01*
X143129816Y-44997738D01*
X143002262Y-44870184D01*
X142966708Y-44847844D01*
X142849523Y-44774211D01*
X142679254Y-44714631D01*
X142679249Y-44714630D01*
X142500004Y-44694435D01*
X142499996Y-44694435D01*
X142320750Y-44714630D01*
X142320745Y-44714631D01*
X142150476Y-44774211D01*
X141997737Y-44870184D01*
X141870184Y-44997737D01*
X141774211Y-45150476D01*
X141714631Y-45320745D01*
X141714630Y-45320750D01*
X141694435Y-45499996D01*
X135576957Y-45499996D01*
X135494035Y-45322171D01*
X135488425Y-45314158D01*
X135358494Y-45128597D01*
X135191402Y-44961506D01*
X135191395Y-44961501D01*
X135171882Y-44947838D01*
X135114518Y-44907671D01*
X134997834Y-44825967D01*
X134997830Y-44825965D01*
X134997828Y-44825964D01*
X134783663Y-44726097D01*
X134783659Y-44726096D01*
X134783655Y-44726094D01*
X134555413Y-44664938D01*
X134555403Y-44664936D01*
X134320001Y-44644341D01*
X134319999Y-44644341D01*
X134084596Y-44664936D01*
X134084586Y-44664938D01*
X133856344Y-44726094D01*
X133856335Y-44726098D01*
X133642171Y-44825964D01*
X133642169Y-44825965D01*
X133448597Y-44961505D01*
X133281505Y-45128597D01*
X133151575Y-45314158D01*
X133096998Y-45357783D01*
X133027500Y-45364977D01*
X132965145Y-45333454D01*
X132948425Y-45314158D01*
X132818494Y-45128597D01*
X132651402Y-44961506D01*
X132651395Y-44961501D01*
X132631882Y-44947838D01*
X132574518Y-44907671D01*
X132457834Y-44825967D01*
X132457830Y-44825965D01*
X132457828Y-44825964D01*
X132243663Y-44726097D01*
X132243659Y-44726096D01*
X132243655Y-44726094D01*
X132015413Y-44664938D01*
X132015403Y-44664936D01*
X131780001Y-44644341D01*
X131779999Y-44644341D01*
X131544596Y-44664936D01*
X131544586Y-44664938D01*
X131316344Y-44726094D01*
X131316335Y-44726098D01*
X131102171Y-44825964D01*
X131102169Y-44825965D01*
X130908597Y-44961505D01*
X130741505Y-45128597D01*
X130611575Y-45314158D01*
X130556998Y-45357783D01*
X130487500Y-45364977D01*
X130425145Y-45333454D01*
X130408425Y-45314158D01*
X130278494Y-45128597D01*
X130111402Y-44961506D01*
X130111395Y-44961501D01*
X130091882Y-44947838D01*
X130034518Y-44907671D01*
X129917834Y-44825967D01*
X129917830Y-44825965D01*
X129917828Y-44825964D01*
X129703663Y-44726097D01*
X129703659Y-44726096D01*
X129703655Y-44726094D01*
X129475413Y-44664938D01*
X129475403Y-44664936D01*
X129240001Y-44644341D01*
X129239999Y-44644341D01*
X129004596Y-44664936D01*
X129004586Y-44664938D01*
X128776344Y-44726094D01*
X128776335Y-44726098D01*
X128562171Y-44825964D01*
X128562169Y-44825965D01*
X128368600Y-44961503D01*
X128246673Y-45083430D01*
X128185350Y-45116914D01*
X128115658Y-45111930D01*
X128059725Y-45070058D01*
X128042810Y-45039081D01*
X127993797Y-44907671D01*
X127993793Y-44907664D01*
X127907547Y-44792455D01*
X127907544Y-44792452D01*
X127792335Y-44706206D01*
X127792328Y-44706202D01*
X127657482Y-44655908D01*
X127657483Y-44655908D01*
X127597883Y-44649501D01*
X127597881Y-44649500D01*
X127597873Y-44649500D01*
X127597864Y-44649500D01*
X125802129Y-44649500D01*
X125802123Y-44649501D01*
X125742516Y-44655908D01*
X125607671Y-44706202D01*
X125607664Y-44706206D01*
X125492455Y-44792452D01*
X125492452Y-44792455D01*
X125406206Y-44907664D01*
X125406202Y-44907671D01*
X125355908Y-45042517D01*
X125349501Y-45102116D01*
X125349500Y-45102135D01*
X117195413Y-45102135D01*
X117175258Y-45070058D01*
X117129816Y-44997738D01*
X117002262Y-44870184D01*
X116966708Y-44847844D01*
X116849523Y-44774211D01*
X116679254Y-44714631D01*
X116679249Y-44714630D01*
X116500004Y-44694435D01*
X116499996Y-44694435D01*
X116320750Y-44714630D01*
X116320745Y-44714631D01*
X116150476Y-44774211D01*
X115997737Y-44870184D01*
X115870184Y-44997737D01*
X115774211Y-45150476D01*
X115714631Y-45320745D01*
X115714630Y-45320750D01*
X115694435Y-45499996D01*
X111289059Y-45499996D01*
X111334450Y-45421377D01*
X111373536Y-45275507D01*
X111376000Y-45200000D01*
X111373536Y-45124493D01*
X111334450Y-44978623D01*
X111324567Y-44961506D01*
X111293482Y-44907664D01*
X111258943Y-44847841D01*
X111152159Y-44741057D01*
X111106386Y-44714630D01*
X111021380Y-44665551D01*
X111021381Y-44665551D01*
X111009419Y-44662345D01*
X110875507Y-44626464D01*
X110875504Y-44626464D01*
X110724496Y-44626464D01*
X110724493Y-44626464D01*
X110590580Y-44662345D01*
X110578619Y-44665551D01*
X110447844Y-44741055D01*
X110447838Y-44741059D01*
X110341059Y-44847838D01*
X110341055Y-44847844D01*
X110265551Y-44978619D01*
X110265550Y-44978623D01*
X110226464Y-45124493D01*
X108846930Y-45124493D01*
X108618774Y-44838392D01*
X108618762Y-44838379D01*
X108320794Y-44526730D01*
X108320793Y-44526729D01*
X108320790Y-44526726D01*
X107996080Y-44243035D01*
X107996068Y-44243026D01*
X107647256Y-43989599D01*
X107647251Y-43989596D01*
X107647247Y-43989593D01*
X107277100Y-43768440D01*
X107277095Y-43768437D01*
X107277093Y-43768436D01*
X106888627Y-43581360D01*
X106888613Y-43581354D01*
X106484944Y-43429855D01*
X106484919Y-43429847D01*
X106069295Y-43315142D01*
X105688332Y-43246007D01*
X105625885Y-43214669D01*
X105590294Y-43154543D01*
X105592859Y-43084721D01*
X105632766Y-43027369D01*
X105697344Y-43000697D01*
X105710473Y-43000000D01*
X154289527Y-43000000D01*
X154356566Y-43019685D01*
G37*
%TD.AperFunction*%
%TD*%
M02*
